<?xml version="1.0" encoding="UTF-8" standalone="no"?>
<svg
   xmlns:dc="http://purl.org/dc/elements/1.1/"
   xmlns:cc="http://creativecommons.org/ns#"
   xmlns:rdf="http://www.w3.org/1999/02/22-rdf-syntax-ns#"
   xmlns:svg="http://www.w3.org/2000/svg"
   xmlns="http://www.w3.org/2000/svg"
   xmlns:sodipodi="http://sodipodi.sourceforge.net/DTD/sodipodi-0.dtd"
   xmlns:inkscape="http://www.inkscape.org/namespaces/inkscape"
   inkscape:version="1.0 (6e3e5246a0, 2020-05-07)"
   sodipodi:docname="LOGO_ADASTra.svg"
   viewBox="0 0 71.999999 72.000534"
   height="72.000534"
   width="72"
   xml:space="preserve"
   id="svg2"
   version="1.1"><metadata
     id="metadata8"><rdf:RDF><cc:Work
         rdf:about=""><dc:format>image/svg+xml</dc:format><dc:type
           rdf:resource="http://purl.org/dc/dcmitype/StillImage" /><dc:title></dc:title></cc:Work></rdf:RDF></metadata><defs
     id="defs6"><clipPath
       id="clipPath22"
       clipPathUnits="userSpaceOnUse"><path
         id="path20"
         d="M 0,0 H 841.89 V 595.276 H 0 Z" /></clipPath><clipPath
       id="clipPath34"
       clipPathUnits="userSpaceOnUse"><path
         id="path32"
         d="m 255,343.275 c 0,0 -12,0 -12,-11.999 v 0 -30.001 c 0,0 0,-12 12,-12 v 0 h 30 c 0,0 12,0 12,12 v 0 30.001 c 0,0 0,11.999 -12,11.999 v 0 z" /></clipPath></defs><sodipodi:namedview
     inkscape:current-layer="g10"
     inkscape:window-maximized="1"
     inkscape:window-y="31"
     inkscape:window-x="61"
     inkscape:cy="63.271883"
     inkscape:cx="187.73544"
     inkscape:zoom="2"
     showgrid="false"
     id="namedview4"
     inkscape:window-height="1020"
     inkscape:window-width="1859"
     inkscape:pageshadow="2"
     inkscape:pageopacity="0"
     guidetolerance="10"
     gridtolerance="10"
     objecttolerance="10"
     borderopacity="1"
     bordercolor="#666666"
     pagecolor="#ffffff" /><g
     transform="matrix(1.3333333,0,0,-1.3333333,-402.97338,450.27114)"
     inkscape:label="LOGO_AD ASTra"
     inkscape:groupmode="layer"
     id="g10"><g
       transform="translate(59.230043,-5.5720369)"
       id="g16"><g
         clip-path="url(#clipPath22)"
         id="g18"><g
           transform="translate(255,343.2754)"
           id="g24"><path
             id="path26"
             style="fill:#000000;fill-opacity:1;fill-rule:nonzero;stroke:none"
             d="m 0,0 c 0,0 -12,0 -12,-12 v -30 c 0,0 0,-12 12,-12 h 30 c 0,0 12,0 12,12 v 30 c 0,0 0,12 -12,12 z" /></g></g></g><g
       transform="translate(59.230043,-5.5720369)"
       id="g28"><g
         clip-path="url(#clipPath34)"
         id="g30"><path
           id="path36"
           style="fill:#0074ff;fill-opacity:1;fill-rule:nonzero;stroke:none"
           d="m 270,316.275 h 36 v 36 h -36 z" /><path
           id="path38"
           style="fill:#7900c8;fill-opacity:1;fill-rule:nonzero;stroke:none"
           d="m 270,280.275 h 36 v 36 h -36 z" /><path
           id="path40"
           style="fill:#ffa500;fill-opacity:1;fill-rule:nonzero;stroke:none"
           d="m 234,280.275 h 36 v 36 h -36 z" /><path
           id="path42"
           style="fill:#ff4500;fill-opacity:1;fill-rule:nonzero;stroke:none"
           d="m 234,316.275 h 36 v 36 h -36 z" /><g
           transform="translate(270,334.2755)"
           id="g44"><path
             id="path46"
             style="fill:#ffffff;fill-opacity:1;fill-rule:nonzero;stroke:none"
             d="m 0,0 -6,-12 -12,-6 12,-6 6,-12 6,12 12,6 -12,6 z" /></g></g></g></g></svg>
