<?xml version="1.0" encoding="UTF-8" standalone="no"?>
<!-- Created with Inkscape (http://www.inkscape.org/) -->

<svg
   xmlns:dc="http://purl.org/dc/elements/1.1/"
   xmlns:cc="http://creativecommons.org/ns#"
   xmlns:rdf="http://www.w3.org/1999/02/22-rdf-syntax-ns#"
   xmlns:svg="http://www.w3.org/2000/svg"
   xmlns="http://www.w3.org/2000/svg"
   xmlns:xlink="http://www.w3.org/1999/xlink"
   xmlns:sodipodi="http://sodipodi.sourceforge.net/DTD/sodipodi-0.dtd"
   xmlns:inkscape="http://www.inkscape.org/namespaces/inkscape"
   width="744.09448819"
   height="1052.3622047"
   id="svg6110"
   version="1.1"
   inkscape:version="0.48.2 r9819"
   sodipodi:docname="autosome20_logo.svg"
   inkscape:export-filename="D:\Gbx\autosome\autosome\autosome20_32.png"
   inkscape:export-xdpi="2.7819047"
   inkscape:export-ydpi="2.7819047">
  <defs
     id="defs6112">
    <linearGradient
       inkscape:collect="always"
       id="linearGradient6861">
      <stop
         style="stop-color:#ff9601;stop-opacity:0.125"
         offset="0"
         id="stop6863" />
      <stop
         style="stop-color:#7c2000;stop-opacity:1"
         offset="1"
         id="stop6865" />
    </linearGradient>
    <linearGradient
       inkscape:collect="always"
       id="linearGradient6819">
      <stop
         style="stop-color:#ff4500;stop-opacity:1;"
         offset="0"
         id="stop6821" />
      <stop
         style="stop-color:#b82b00;stop-opacity:1"
         offset="1"
         id="stop6823" />
    </linearGradient>
    <linearGradient
       inkscape:collect="always"
       id="linearGradient6745">
      <stop
         style="stop-color:#ffb901;stop-opacity:1;"
         offset="0"
         id="stop6747" />
      <stop
         style="stop-color:#e04000;stop-opacity:1"
         offset="1"
         id="stop6749" />
    </linearGradient>
    <linearGradient
       inkscape:collect="always"
       id="linearGradient6668">
      <stop
         style="stop-color:#ffb901;stop-opacity:1"
         offset="0"
         id="stop6670" />
      <stop
         style="stop-color:#ff4901;stop-opacity:1"
         offset="1"
         id="stop6672" />
    </linearGradient>
    <linearGradient
       inkscape:collect="always"
       id="linearGradient6640">
      <stop
         style="stop-color:#f00000;stop-opacity:1"
         offset="0"
         id="stop6642" />
      <stop
         style="stop-color:#4b0000;stop-opacity:1"
         offset="1"
         id="stop6644" />
    </linearGradient>
    <inkscape:path-effect
       effect="spiro"
       id="path-effect6597"
       is_visible="true" />
    <inkscape:path-effect
       effect="spiro"
       id="path-effect6593"
       is_visible="true" />
    <inkscape:path-effect
       effect="spiro"
       id="path-effect6541"
       is_visible="true" />
    <inkscape:path-effect
       effect="skeletal"
       id="path-effect6537"
       is_visible="true"
       pattern="M 0,5 10,10 10,0 z"
       copytype="single_stretched"
       prop_scale="1"
       scale_y_rel="false"
       spacing="0"
       normal_offset="0"
       tang_offset="0"
       prop_units="false"
       vertical_pattern="false"
       fuse_tolerance="0" />
    <inkscape:path-effect
       effect="spiro"
       id="path-effect6535"
       is_visible="true" />
    <inkscape:perspective
       sodipodi:type="inkscape:persp3d"
       inkscape:vp_x="0 : 526.18109 : 1"
       inkscape:vp_y="0 : 1000 : 0"
       inkscape:vp_z="744.09448 : 526.18109 : 1"
       inkscape:persp3d-origin="372.04724 : 350.78739 : 1"
       id="perspective6497" />
    <linearGradient
       id="linearGradient6343">
      <stop
         id="stop6345"
         offset="0"
         style="stop-color:#ff9400;stop-opacity:0.125" />
      <stop
         id="stop6347"
         offset="1"
         style="stop-color:#7d1f00;stop-opacity:1" />
    </linearGradient>
    <linearGradient
       id="linearGradient6331">
      <stop
         style="stop-color:#ffa200;stop-opacity:1"
         offset="0"
         id="stop6333" />
      <stop
         style="stop-color:#ff4500;stop-opacity:1"
         offset="1"
         id="stop6335" />
    </linearGradient>
    <filter
       inkscape:collect="always"
       id="filter6439">
      <feGaussianBlur
         inkscape:collect="always"
         stdDeviation="2.7401576"
         id="feGaussianBlur6441" />
    </filter>
    <filter
       inkscape:collect="always"
       id="filter6609"
       x="-0.27224755"
       width="1.5444951"
       y="-0.16311101"
       height="1.326222">
      <feGaussianBlur
         inkscape:collect="always"
         stdDeviation="13.277403"
         id="feGaussianBlur6611" />
    </filter>
    <radialGradient
       inkscape:collect="always"
       xlink:href="#linearGradient6331"
       id="radialGradient6628"
       gradientUnits="userSpaceOnUse"
       gradientTransform="matrix(1,0,0,1.2373492,-4.1367334,112.19534)"
       cx="-118.1347"
       cy="338.3768"
       fx="-109.86122"
       fy="310.51663"
       r="82.569115" />
    <mask
       maskUnits="userSpaceOnUse"
       id="mask6624">
      <path
         sodipodi:nodetypes="azzczzczzzzzczzzzzzzzzzzzzzccccza"
         inkscape:connector-curvature="0"
         id="path6626"
         d="m -121.31224,456.35816 c 5.62776,-3.20741 14.52829,-7.87721 13.07189,-14.37908 -1.4564,-6.50188 -4.41486,2.82854 0,7.18954 4.41487,4.36101 12.671776,8.47772 20.126466,7.84313 6.53556,-0.87099 -2.42616,3.06282 -3.78659,8.49673 -1.36043,5.43391 -1.32147,16.53061 1.96079,21.56863 3.28226,5.03802 11.225816,7.01947 10.457506,6.53595 -8.024336,-0.62125 -14.542296,8.92531 -17.647056,15.03268 -3.104756,6.10737 -4.012946,8.34143 -4.575156,15.03268 -0.56221,6.69125 -0.81982,15.24205 1.902106,24.19831 2.72193,8.95626 4.70881,12.45932 9.8788,22.19736 5.16999,9.73804 17.300876,23.38185 22.550816,28.09442 5.24994,4.71257 10.60499,11.37537 5.82192,7.49363 -3.66426,-3.6077 -5.27307,-5.01114 -9.47856,-7.49152 -4.20549,-2.48038 -17.509086,-6.90506 -25.445786,-7.50332 -7.936706,-0.59826 -13.492386,-0.37726 -20.915576,2.29216 -7.42319,2.66942 -14.30976,8.87342 -18.60868,16.57665 -4.29892,7.70323 -8.09897,19.04108 -10.14949,25.90702 -2.05052,6.86594 -1.08792,9.64229 -2.61437,1.96078 -1.52646,-7.68151 -4.79673,-13.61171 -10.98865,-19.20432 -6.19192,-5.59261 -16.45026,-8.98323 -24.95907,-8.24666 -8.50881,0.73657 -15.7363,4.91066 -22.22222,8.49673 -6.48592,3.58607 -12.30481,10.77363 -15.1509,12.81818 -2.84609,2.04455 3.83035,-14.12407 7.58825,-21.87588 3.7579,-7.75181 8.60653,-15.39717 15.40579,-23.62204 6.79926,-8.22487 15.75518,-18.49612 23.02269,-26.97646 7.26751,-8.48034 13.8941,-18.6246 16.84659,-26.61831 2.95249,-7.99371 -8.80437,-13.74037 -6.59405,-7.82343 5.48275,5.5615 14.1355,3.26041 18.35875,-2.63409 5.76535,-6.48915 8.66475,-15.33846 8.49673,-24.04802 0.288,-8.46519 -0.76052,-17.25659 -5.01974,-24.62334 -1.65086,-3.37889 -8.668,-8.21736 -0.23125,-11.73287 8.43676,-3.51551 16.32748,-1.2105 22.89805,-4.95524 z"
         style="fill:url(#radialGradient6628);fill-opacity:1;stroke:#ff4500;stroke-width:2.05877781px;stroke-linecap:butt;stroke-linejoin:miter;stroke-opacity:1" />
    </mask>
    <filter
       inkscape:collect="always"
       id="filter6761"
       x="-0.079373936"
       width="1.1587479"
       y="-0.10807005"
       height="1.2161401">
      <feGaussianBlur
         inkscape:collect="always"
         stdDeviation="0.6938999"
         id="feGaussianBlur6763" />
    </filter>
    <radialGradient
       inkscape:collect="always"
       xlink:href="#linearGradient6745"
       id="radialGradient6773"
       gradientUnits="userSpaceOnUse"
       gradientTransform="matrix(1.0000001,0,0,0.73446749,14.737109,50.388797)"
       cx="42.083467"
       cy="268.30925"
       fx="45.099834"
       fy="267.01852"
       r="10.490596" />
    <mask
       maskUnits="userSpaceOnUse"
       id="mask6769">
      <path
         sodipodi:nodetypes="caaaaaaac"
         inkscape:connector-curvature="0"
         id="path6771"
         d="m 56.229862,242.54771 c -4.51972,0.68241 -5.53131,0.80959 -7.55098,2.53264 -1.27902,1.09118 -2.48156,2.79457 -2.33707,4.46959 0.16044,1.85992 1.7713,3.54485 3.40662,4.44529 2.46759,1.35869 5.67599,1.40765 8.41678,0.75716 3.02587,-0.71816 6.34898,-2.24173 7.92557,-4.9224 1.2739,-2.16601 1.78926,-5.46037 0.36378,-7.52977 -1.55207,-2.25319 -5.06527,-2.55969 -7.80127,-2.55186 -3.47233,0.01 -9.76122,2.0406 -9.8821,3.29529"
         style="fill:url(#radialGradient6773);fill-opacity:1;stroke:none;display:inherit" />
    </mask>
    <filter
       inkscape:collect="always"
       id="filter6797"
       x="-0.15610207"
       width="1.3122041"
       y="-0.21253776"
       height="1.4250755">
      <feGaussianBlur
         inkscape:collect="always"
         stdDeviation="1.3646698"
         id="feGaussianBlur6799" />
    </filter>
    <filter
       inkscape:collect="always"
       id="filter6855"
       x="-0.45999977"
       width="1.9199995"
       y="-0.11189191"
       height="1.2237838">
      <feGaussianBlur
         inkscape:collect="always"
         stdDeviation="2.2549016"
         id="feGaussianBlur6857" />
    </filter>
    <radialGradient
       inkscape:collect="always"
       xlink:href="#linearGradient6331"
       id="radialGradient3087"
       gradientUnits="userSpaceOnUse"
       gradientTransform="matrix(1,0,0,1.2373492,221.8668,-53.342939)"
       cx="-118.1347"
       cy="338.3768"
       fx="-109.86122"
       fy="310.51663"
       r="82.569115" />
    <radialGradient
       inkscape:collect="always"
       xlink:href="#linearGradient6343"
       id="radialGradient3089"
       gradientUnits="userSpaceOnUse"
       gradientTransform="matrix(1,0,0,1.2373492,221.77656,-53.284509)"
       cx="-115.37688"
       cy="338.3768"
       fx="-107.1034"
       fy="310.51663"
       r="82.569115" />
    <radialGradient
       inkscape:collect="always"
       xlink:href="#linearGradient6861"
       id="radialGradient3091"
       gradientUnits="userSpaceOnUse"
       gradientTransform="matrix(1,0,0,1.2403455,402.00025,-98.791069)"
       cx="-295.60056"
       cy="374.24799"
       fx="-295.60056"
       fy="374.24799"
       r="81.539734" />
    <radialGradient
       inkscape:collect="always"
       xlink:href="#linearGradient6640"
       id="radialGradient3093"
       gradientUnits="userSpaceOnUse"
       gradientTransform="matrix(1.1252424,-0.35460134,0.2854253,0.9057288,92.156693,-68.281042)"
       cx="-115.8306"
       cy="458.51321"
       fx="-115.8306"
       fy="458.51321"
       r="19.795786" />
    <radialGradient
       inkscape:collect="always"
       xlink:href="#linearGradient6668"
       id="radialGradient3095"
       gradientUnits="userSpaceOnUse"
       gradientTransform="matrix(0.86777478,0.35371293,-0.32677732,0.80169295,177.18055,74.584298)"
       cx="40.483479"
       cy="322.09628"
       fx="44"
       fy="320.13553"
       r="10.497304" />
    <linearGradient
       inkscape:collect="always"
       xlink:href="#linearGradient6819"
       id="linearGradient3097"
       gradientUnits="userSpaceOnUse"
       gradientTransform="translate(46.254983,-12.628562)"
       x1="52.70752"
       y1="345.38092"
       x2="50.355789"
       y2="271.98169" />
    <radialGradient
       inkscape:collect="always"
       xlink:href="#linearGradient6745"
       id="radialGradient3099"
       gradientUnits="userSpaceOnUse"
       gradientTransform="matrix(1.0000001,0,0,0.73446749,46.341163,58.443902)"
       cx="42.083467"
       cy="268.30925"
       fx="45.099834"
       fy="267.01852"
       r="10.490596" />
    <linearGradient
       inkscape:collect="always"
       xlink:href="#linearGradient6819"
       id="linearGradient3101"
       gradientUnits="userSpaceOnUse"
       gradientTransform="matrix(0.95712951,0.28966031,-0.28966031,0.95712951,163.75842,-24.017359)"
       x1="51.916576"
       y1="345.56009"
       x2="50.355789"
       y2="271.98169" />
    <radialGradient
       inkscape:collect="always"
       xlink:href="#linearGradient6745"
       id="radialGradient3103"
       gradientUnits="userSpaceOnUse"
       gradientTransform="matrix(1.0000001,0,0,0.73446749,89.356311,50.032645)"
       cx="42.083467"
       cy="268.30925"
       fx="45.099834"
       fy="267.01852"
       r="10.490596" />
    <filter
       inkscape:collect="always"
       id="filter3920"
       x="-0.026886763"
       width="1.0537735"
       y="-0.22353148"
       height="1.447063">
      <feGaussianBlur
         inkscape:collect="always"
         stdDeviation="0.5285318"
         id="feGaussianBlur3922" />
    </filter>
  </defs>
  <sodipodi:namedview
     id="base"
     pagecolor="#ffffff"
     bordercolor="#666666"
     borderopacity="1.0"
     inkscape:pageopacity="0.0"
     inkscape:pageshadow="2"
     inkscape:zoom="0.54"
     inkscape:cx="705.61416"
     inkscape:cy="545.90953"
     inkscape:document-units="px"
     inkscape:current-layer="g5746_0"
     showgrid="false"
     inkscape:window-width="1366"
     inkscape:window-height="746"
     inkscape:window-x="-8"
     inkscape:window-y="-8"
     inkscape:window-maximized="1"
     inkscape:object-paths="true"
     inkscape:snap-global="false" />
  <metadata
     id="metadata6115">
    <rdf:RDF>
      <cc:Work
         rdf:about="">
        <dc:format>image/svg+xml</dc:format>
        <dc:type
           rdf:resource="http://purl.org/dc/dcmitype/StillImage" />
        <dc:title></dc:title>
      </cc:Work>
    </rdf:RDF>
  </metadata>
  <g
     inkscape:label="Layer 1"
     inkscape:groupmode="layer"
     id="layer1">
    <g
       style="display:inherit;stroke:#ff4500;stroke-opacity:1"
       transform="matrix(4.1440566,0,0,4.1440566,41.675163,-957.02654)"
       id="g5746_0">
      <g
         style="font-size:9.65237808px;font-style:normal;font-weight:normal;line-height:125%;letter-spacing:0px;word-spacing:0px;fill:#943f24;fill-opacity:1;stroke:none;filter:url(#filter3920);font-family:Sans"
         id="text3109"
         transform="matrix(1.5388958,0,0,1.5388958,-65.78595,-226.57031)">
        <path
           d="m 105.11639,441.10224 c 0.0723,-0.18223 0.13667,-0.40689 0.19324,-0.67397 0.0566,-0.26393 0.0943,-0.48387 0.11311,-0.65983 l 0.033,-0.26393 c -0.19167,-0.12254 -0.39119,-0.18381 -0.59856,-0.18381 -0.21052,0 -0.42104,0.084 -0.63155,0.25215 -0.21052,0.1681 -0.39119,0.37862 -0.54201,0.63155 -0.15082,0.25294 -0.27257,0.52787 -0.36526,0.82479 -0.0927,0.29693 -0.13904,0.57264 -0.13903,0.82715 -10e-6,0.29535 0.0306,0.51922 0.0919,0.67161 0.0613,0.15239 0.16888,0.22858 0.32285,0.22858 0.1571,0 0.39196,-0.1681 0.7046,-0.5043 0.31263,-0.33619 0.5852,-0.71952 0.81772,-1.14999 z m 0.48545,-2.06432 c 0.0566,0.0157 0.12253,0.0244 0.19795,0.0259 0.0754,0.002 0.17123,7.9e-4 0.28749,-0.002 0.11625,-0.003 0.19166,-0.005 0.22623,-0.005 l -0.70225,3.00223 c -0.0409,0.19795 -0.0613,0.39433 -0.0613,0.58913 0,0.0503 0.0134,0.0856 0.0401,0.10605 0.0267,0.0204 0.0526,0.0306 0.0778,0.0306 0.0911,0 0.27178,-0.18695 0.542,-0.56085 l 0.25922,0.15553 c -0.14768,0.24194 -0.33699,0.45795 -0.56792,0.64804 -0.23095,0.1901 -0.46582,0.28515 -0.70461,0.28515 -0.15082,0 -0.26079,-0.044 -0.32991,-0.13197 -0.0691,-0.088 -0.10369,-0.18852 -0.10369,-0.30164 0,-0.13196 0.0314,-0.30792 0.0943,-0.52786 l 0.15553,-0.5043 -0.0189,-0.0188 c -0.66926,0.98974 -1.22383,1.48462 -1.66372,1.48462 -0.19166,0 -0.35348,-0.0408 -0.48544,-0.12254 -0.13197,-0.0817 -0.22937,-0.19167 -0.29221,-0.32992 -0.0628,-0.13825 -0.10605,-0.27493 -0.12961,-0.41004 -0.0236,-0.1351 -0.0354,-0.28121 -0.0354,-0.43831 0,-0.36448 0.0793,-0.73446 0.23801,-1.10993 0.15867,-0.37547 0.35741,-0.70146 0.5962,-0.97797 0.2388,-0.27649 0.50273,-0.50272 0.7918,-0.67868 0.28907,-0.17595 0.56085,-0.26393 0.81536,-0.26393 0.16967,0 0.42732,0.0189 0.77295,0.0566 z"
           style="font-style:oblique;font-variant:normal;font-stretch:normal;fill:#943f24;fill-opacity:1;font-family:Linux Biolinum Slanted;-inkscape-font-specification:Linux Biolinum Slanted Oblique"
           id="path3114"
           inkscape:connector-curvature="0" />
        <path
           d="m 109.88602,442.601 c -0.31106,0.27022 -0.58128,0.45638 -0.81065,0.5585 -0.22937,0.10212 -0.45403,0.15318 -0.67397,0.15318 -0.22937,0 -0.42025,-0.0369 -0.57264,-0.11076 -0.15239,-0.0738 -0.25843,-0.17203 -0.31813,-0.29457 -0.0597,-0.12254 -0.0966,-0.26236 -0.11076,-0.41946 -0.0141,-0.1571 7.9e-4,-0.31892 0.0448,-0.48545 l 0.24979,-1.18769 c 0.16339,-0.76666 0.25451,-1.34637 0.27336,-1.73913 l 0.0283,-0.0283 c 0.0848,0.0189 0.23722,0.0283 0.45717,0.0283 0.10054,10e-6 0.19009,-0.002 0.26864,-0.005 0.0754,-0.006 0.12882,-0.0126 0.16025,-0.0189 l 0.0471,-0.005 0.005,0.0283 c -0.14139,0.36762 -0.29693,0.94733 -0.46659,1.73913 l -0.20267,0.95675 c -0.0408,0.16967 -0.0558,0.31421 -0.0448,0.4336 0.011,0.1194 0.0306,0.21681 0.0589,0.29221 0.0283,0.0754 0.0723,0.13433 0.13197,0.17674 0.0597,0.0424 0.11704,0.0715 0.17203,0.0872 0.055,0.0157 0.11546,0.0236 0.18145,0.0236 0.3142,0 0.72581,-0.23879 1.23483,-0.71639 l 0.26393,-1.25367 c 0.16338,-0.76666 0.2545,-1.34637 0.27336,-1.73913 l 0.0236,-0.0283 c 0.0848,0.0189 0.23722,0.0283 0.45717,0.0283 0.10054,10e-6 0.19087,-0.002 0.271,-0.007 0.0801,-0.005 0.13589,-0.0102 0.16732,-0.0165 l 0.0424,-0.005 0.005,0.0283 c -0.1414,0.36762 -0.29693,0.94733 -0.4666,1.73913 l -0.11783,0.55143 c -0.14139,0.65669 -0.21837,1.2741 -0.23094,1.85223 l -0.0236,0.0283 c -0.12255,-0.0188 -0.26394,-0.0283 -0.42418,-0.0283 -0.0503,0 -0.16339,0.009 -0.33934,0.0283 -0.0283,0 -0.0495,-0.002 -0.0636,-0.007 -0.0141,-0.005 -0.0196,-0.0118 -0.0165,-0.0212 l 0.0848,-0.61741 z"
           style="font-style:oblique;font-variant:normal;font-stretch:normal;fill:#943f24;fill-opacity:1;font-family:Linux Biolinum Slanted;-inkscape-font-specification:Linux Biolinum Slanted Oblique"
           id="path3116"
           inkscape:connector-curvature="0" />
        <path
           d="m 113.12862,439.07562 c 0.10682,-0.50901 0.16652,-0.89705 0.17909,-1.16413 l 0.0283,-0.033 c 0.1194,-0.009 0.2223,-0.0243 0.30871,-0.0448 0.0864,-0.0204 0.18852,-0.0558 0.30635,-0.10605 0.11782,-0.0503 0.19088,-0.0801 0.21916,-0.0896 0.0534,1e-5 0.0738,0.033 0.0613,0.099 -0.11312,0.39276 -0.22309,0.83893 -0.32992,1.33851 l 1.03216,0 c 0.0251,10e-6 0.0432,0.005 0.0542,0.0165 0.011,0.011 0.0149,0.0259 0.0118,0.0448 l -0.0518,0.24037 c -0.009,0.0377 -0.0416,0.0683 -0.0966,0.0919 -0.055,0.0236 -0.10919,0.0353 -0.16261,0.0353 l -0.87663,0 -0.29692,1.37622 c -0.0471,0.21994 -0.10369,0.46738 -0.16967,0.74231 -0.066,0.27493 -0.10683,0.44696 -0.12254,0.51608 -0.0314,0.14139 -0.0471,0.25294 -0.0471,0.33463 0,0.0817 0.0181,0.1461 0.0542,0.19323 0.0361,0.0471 0.0966,0.0707 0.18145,0.0707 0.13197,0 0.24665,-0.0118 0.34406,-0.0353 0.0974,-0.0236 0.21522,-0.0699 0.35348,-0.13903 l 0.066,0.26864 c -0.41161,0.32049 -0.82008,0.48074 -1.2254,0.48074 -0.22309,0 -0.38883,-0.0699 -0.49723,-0.20974 -0.1084,-0.13982 -0.13904,-0.32284 -0.0919,-0.54907 0.0157,-0.0691 0.0683,-0.29221 0.15788,-0.66926 0.0896,-0.37704 0.15789,-0.67553 0.20502,-0.89548 l 0.31578,-1.48462 -0.60799,0 c -0.0283,0 -0.0393,-0.0141 -0.033,-0.0424 l 0.0754,-0.34405 c 0.006,-0.0283 0.0189,-0.0424 0.0377,-0.0424 z"
           style="font-style:oblique;font-variant:normal;font-stretch:normal;fill:#943f24;fill-opacity:1;font-family:Linux Biolinum Slanted;-inkscape-font-specification:Linux Biolinum Slanted Oblique"
           id="path3118"
           inkscape:connector-curvature="0" />
        <path
           d="m 117.44579,439.37726 c -0.19795,0 -0.38019,0.0448 -0.54671,0.13432 -0.16653,0.0896 -0.30793,0.21366 -0.42418,0.37233 -0.11626,0.15868 -0.21366,0.33228 -0.29221,0.5208 -0.0785,0.18852 -0.14139,0.39276 -0.18852,0.6127 -0.0471,0.21994 -0.0707,0.43832 -0.0707,0.65512 0,0.16653 0.0157,0.32049 0.0471,0.46188 0.0314,0.14139 0.0817,0.27336 0.15082,0.3959 0.0691,0.12254 0.1681,0.21837 0.29692,0.28749 0.12883,0.0691 0.28121,0.10369 0.45717,0.10369 0.1194,0 0.23879,-0.0236 0.3582,-0.0707 0.11939,-0.0471 0.2435,-0.12411 0.37233,-0.23094 0.12882,-0.10683 0.24665,-0.26393 0.35348,-0.4713 0.10682,-0.20738 0.19009,-0.45246 0.24979,-0.73524 0.0817,-0.37705 0.12254,-0.70696 0.12254,-0.98975 0,-0.35819 -0.0731,-0.62212 -0.21916,-0.7918 -0.14611,-0.16966 -0.3684,-0.2545 -0.6669,-0.2545 z m -2.36596,1.86166 c 0.14139,-0.66611 0.4446,-1.2089 0.90962,-1.62836 0.46502,-0.41946 1.00074,-0.6292 1.60716,-0.6292 0.28593,0 0.53493,0.0432 0.74702,0.12961 0.21209,0.0864 0.37862,0.20581 0.49959,0.35819 0.12096,0.1524 0.20973,0.31971 0.26629,0.50195 0.0566,0.18224 0.0848,0.38176 0.0848,0.59856 0,0.20423 -0.0204,0.39904 -0.0613,0.58442 -0.0566,0.26393 -0.15475,0.52236 -0.29456,0.7753 -0.13983,0.25293 -0.31343,0.48309 -0.5208,0.69046 -0.20738,0.20738 -0.45638,0.37469 -0.74702,0.50195 -0.29064,0.12725 -0.59621,0.19088 -0.91669,0.19088 -0.52158,0 -0.92298,-0.15082 -1.20419,-0.45246 -0.28122,-0.30164 -0.42182,-0.68339 -0.42182,-1.14528 0,-0.15081 0.0173,-0.30949 0.0518,-0.47602 z"
           style="font-style:oblique;font-variant:normal;font-stretch:normal;fill:#943f24;fill-opacity:1;font-family:Linux Biolinum Slanted;-inkscape-font-specification:Linux Biolinum Slanted Oblique"
           id="path3120"
           inkscape:connector-curvature="0" />
        <path
           d="m 119.67508,442.28994 0.13668,-0.009 c 0.0597,0.20424 0.17595,0.36841 0.34876,0.49252 0.17282,0.12411 0.36919,0.18617 0.58914,0.18617 0.24193,0 0.45324,-0.0746 0.63391,-0.22388 0.18066,-0.14924 0.2977,-0.35112 0.35112,-0.60563 0.0251,-0.0848 0.0291,-0.16024 0.0118,-0.22622 -0.0173,-0.066 -0.0401,-0.12254 -0.0683,-0.16967 -0.0283,-0.0471 -0.0738,-0.0903 -0.13667,-0.12961 -0.0628,-0.0393 -0.12726,-0.0746 -0.19324,-0.10605 -0.066,-0.0314 -0.14611,-0.0675 -0.24037,-0.1084 -0.044,-0.0189 -0.0785,-0.033 -0.10368,-0.0424 -0.10998,-0.0471 -0.19246,-0.0833 -0.24744,-0.1084 -0.055,-0.0251 -0.12411,-0.062 -0.20738,-0.11075 -0.0833,-0.0487 -0.15082,-0.10055 -0.20266,-0.15554 -0.0518,-0.055 -0.0951,-0.11704 -0.12961,-0.18616 -0.088,-0.16653 -0.10526,-0.37547 -0.0518,-0.62684 0.0534,-0.25136 0.17674,-0.46973 0.36997,-0.65512 0.19324,-0.18538 0.4069,-0.31891 0.64098,-0.40061 0.23408,-0.0817 0.47052,-0.12254 0.70932,-0.12254 0.39275,0 0.75095,0.10212 1.07458,0.30635 l 0.009,0.033 -0.32049,0.64569 -0.12725,0.009 c -0.0409,-0.16967 -0.12333,-0.3197 -0.24744,-0.4501 -0.12412,-0.13039 -0.29143,-0.19559 -0.50194,-0.19559 -0.20738,0 -0.39748,0.0597 -0.57029,0.17909 -0.17281,0.11941 -0.27964,0.27494 -0.32048,0.4666 -0.0251,0.10997 -0.0228,0.20738 0.007,0.29221 0.0298,0.0848 0.0833,0.15632 0.16025,0.21444 0.077,0.0581 0.14924,0.10291 0.2168,0.13433 0.0676,0.0314 0.15003,0.066 0.24744,0.10368 0.0126,0.003 0.022,0.006 0.0283,0.009 0.0911,0.0346 0.16652,0.0644 0.22622,0.0895 0.0597,0.0251 0.12804,0.0566 0.20502,0.0943 0.077,0.0377 0.13982,0.0746 0.18853,0.11076 0.0487,0.0361 0.0998,0.0786 0.15317,0.12725 0.0534,0.0487 0.0943,0.10055 0.12254,0.15553 0.0283,0.055 0.0534,0.11705 0.0754,0.18617 0.022,0.0691 0.0322,0.14532 0.0306,0.22858 -0.002,0.0833 -0.0134,0.1736 -0.0353,0.271 -0.0314,0.15082 -0.0848,0.29614 -0.16025,0.43596 -0.0754,0.13983 -0.18146,0.27965 -0.31813,0.41947 -0.13668,0.13982 -0.32128,0.25215 -0.55379,0.33698 -0.23251,0.0848 -0.49644,0.12726 -0.79179,0.12726 -0.45246,0 -0.89392,-0.0864 -1.32438,-0.25922 z"
           style="font-style:oblique;font-variant:normal;font-stretch:normal;fill:#943f24;fill-opacity:1;font-family:Linux Biolinum Slanted;-inkscape-font-specification:Linux Biolinum Slanted Oblique"
           id="path3122"
           inkscape:connector-curvature="0" />
        <path
           d="m 125.68425,439.37726 c -0.19795,0 -0.38019,0.0448 -0.54672,0.13432 -0.16653,0.0896 -0.30792,0.21366 -0.42417,0.37233 -0.11626,0.15868 -0.21367,0.33228 -0.29221,0.5208 -0.0786,0.18852 -0.1414,0.39276 -0.18853,0.6127 -0.0471,0.21994 -0.0707,0.43832 -0.0707,0.65512 -10e-6,0.16653 0.0157,0.32049 0.0471,0.46188 0.0314,0.14139 0.0817,0.27336 0.15082,0.3959 0.0691,0.12254 0.16809,0.21837 0.29692,0.28749 0.12882,0.0691 0.28121,0.10369 0.45717,0.10369 0.11939,0 0.23879,-0.0236 0.35819,-0.0707 0.1194,-0.0471 0.24351,-0.12411 0.37233,-0.23094 0.12882,-0.10683 0.24665,-0.26393 0.35348,-0.4713 0.10683,-0.20738 0.19009,-0.45246 0.2498,-0.73524 0.0817,-0.37705 0.12253,-0.70696 0.12254,-0.98975 -10e-6,-0.35819 -0.0731,-0.62212 -0.21916,-0.7918 -0.14611,-0.16966 -0.36841,-0.2545 -0.6669,-0.2545 z m -2.36596,1.86166 c 0.14139,-0.66611 0.44459,-1.2089 0.90962,-1.62836 0.46502,-0.41946 1.00074,-0.6292 1.60716,-0.6292 0.28592,0 0.53493,0.0432 0.74702,0.12961 0.21208,0.0864 0.37861,0.20581 0.49959,0.35819 0.12096,0.1524 0.20972,0.31971 0.26629,0.50195 0.0566,0.18224 0.0848,0.38176 0.0848,0.59856 0,0.20423 -0.0204,0.39904 -0.0613,0.58442 -0.0566,0.26393 -0.15475,0.52236 -0.29457,0.7753 -0.13982,0.25293 -0.31342,0.48309 -0.52079,0.69046 -0.20738,0.20738 -0.45639,0.37469 -0.74702,0.50195 -0.29065,0.12725 -0.59621,0.19088 -0.9167,0.19088 -0.52158,0 -0.92298,-0.15082 -1.20419,-0.45246 -0.28121,-0.30164 -0.42182,-0.68339 -0.42182,-1.14528 0,-0.15081 0.0173,-0.30949 0.0519,-0.47602 z"
           style="font-style:oblique;font-variant:normal;font-stretch:normal;fill:#943f24;fill-opacity:1;font-family:Linux Biolinum Slanted;-inkscape-font-specification:Linux Biolinum Slanted Oblique"
           id="path3124"
           inkscape:connector-curvature="0" />
        <path
           d="M 133.47025,441.47929 133.70119,440.4 c 0.0691,-0.32049 0.0636,-0.54358 -0.0165,-0.66926 -0.0801,-0.12568 -0.25216,-0.18852 -0.51609,-0.18852 -0.18538,0 -0.35898,0.0463 -0.52079,0.13903 -0.16182,0.0927 -0.38884,0.27101 -0.68104,0.53494 -0.009,0.066 -0.0267,0.16338 -0.0518,0.29221 l -0.20738,0.97089 c -0.15711,0.74467 -0.24823,1.32437 -0.27336,1.73912 l -0.0283,0.0283 c -0.0848,-0.0188 -0.23723,-0.0283 -0.45716,-0.0283 -0.10055,0 -0.1901,0.003 -0.26865,0.009 -0.0786,0 -0.13354,0.003 -0.16496,0.009 l -0.0424,0.009 -0.005,-0.0283 c 0.1571,-0.41789 0.31263,-0.9976 0.4666,-1.73912 l 0.22622,-1.06044 c 0.0628,-0.30164 0.0432,-0.52315 -0.0589,-0.66455 -0.10212,-0.14138 -0.2553,-0.21208 -0.45952,-0.21208 -0.16025,0 -0.32521,0.0503 -0.49488,0.15081 -0.16967,0.10055 -0.40375,0.27808 -0.70225,0.53258 l -0.26864,1.25368 c -0.15711,0.74467 -0.24822,1.32437 -0.27336,1.73912 l -0.0236,0.0283 c -0.0848,-0.0188 -0.23722,-0.0283 -0.45716,-0.0283 -0.10055,0 -0.19167,0.003 -0.27336,0.009 -0.0754,0 -0.12883,0.003 -0.16025,0.009 l -0.0471,0.009 -0.005,-0.0283 c 0.14768,-0.39589 0.30321,-0.9756 0.46659,-1.73912 l 0.11312,-0.52786 c 0.16338,-0.75409 0.25136,-1.32123 0.26393,-1.70143 l 0.0283,-0.0283 c 0.0943,-0.006 0.18616,-0.0196 0.27571,-0.0401 0.0896,-0.0204 0.15868,-0.0385 0.20738,-0.0542 0.0487,-0.0157 0.11939,-0.0416 0.21209,-0.0778 0.0927,-0.0361 0.15474,-0.0589 0.18616,-0.0683 0.0566,0 0.0786,0.0314 0.066,0.0943 l -0.23094,0.66926 0.0189,0 c 0.31106,-0.26707 0.5797,-0.46109 0.80593,-0.58207 0.22623,-0.12096 0.47916,-0.18145 0.75881,-0.18145 0.27021,0 0.49094,0.0731 0.66219,0.21916 0.17123,0.14611 0.25057,0.32756 0.23801,0.54436 0.32991,-0.28592 0.61662,-0.48466 0.86013,-0.59621 0.24351,-0.11153 0.4988,-0.16731 0.76588,-0.16731 0.16966,0 0.31498,0.0173 0.43596,0.0518 0.12096,0.0346 0.21444,0.0872 0.28043,0.15789 0.066,0.0707 0.11624,0.14847 0.15081,0.2333 0.0346,0.0848 0.0511,0.1901 0.0495,0.31577 -0.002,0.12569 -0.0102,0.24666 -0.0259,0.36291 -0.0157,0.11626 -0.0409,0.25451 -0.0754,0.41475 l -0.20738,0.96147 c -0.1571,0.74467 -0.24822,1.32437 -0.27335,1.73912 l -0.0236,0.0283 c -0.0848,-0.0188 -0.23723,-0.0283 -0.45717,-0.0283 -0.10055,0 -0.1901,0.003 -0.26864,0.009 -0.0817,0 -0.13826,0.003 -0.16967,0.009 l -0.0424,0.009 0,-0.0283 c 0.14767,-0.39904 0.30163,-0.97874 0.46188,-1.73912 z"
           style="font-style:oblique;font-variant:normal;font-stretch:normal;fill:#943f24;fill-opacity:1;font-family:Linux Biolinum Slanted;-inkscape-font-specification:Linux Biolinum Slanted Oblique"
           id="path3126"
           inkscape:connector-curvature="0" />
        <path
           d="m 136.40178,441.31433 c -0.009,0.1414 -0.0141,0.24194 -0.0141,0.30164 0,0.40532 0.0762,0.71246 0.22859,0.9214 0.15239,0.20895 0.34484,0.31342 0.57735,0.31342 0.21994,0 0.45638,-0.099 0.70932,-0.29692 0.25293,-0.19795 0.45166,-0.42417 0.5962,-0.67868 l 0.0613,0.009 c 0.003,0.0251 0.0102,0.0754 0.0212,0.15082 0.011,0.0754 0.022,0.14297 0.033,0.20266 0.011,0.0597 0.0244,0.10526 0.0401,0.13668 -0.20423,0.28279 -0.46188,0.5098 -0.77294,0.68104 -0.31107,0.17124 -0.65983,0.25687 -1.0463,0.25687 -0.39276,0 -0.70854,-0.14218 -0.94733,-0.42654 -0.2388,-0.28435 -0.3582,-0.63233 -0.3582,-1.04394 0,-0.25137 0.0322,-0.50744 0.0966,-0.76823 0.0644,-0.26079 0.16496,-0.51687 0.30164,-0.76824 0.13668,-0.25136 0.30085,-0.47444 0.49252,-0.66925 0.19166,-0.19481 0.42888,-0.35269 0.71167,-0.47367 0.28278,-0.12096 0.58756,-0.18145 0.91434,-0.18145 0.65354,0 0.98031,0.23094 0.98032,0.69282 -1e-5,0.0691 -0.003,0.1304 -0.009,0.18381 -0.006,0.0534 -0.0283,0.12569 -0.066,0.2168 -0.0377,0.0911 -0.0888,0.1736 -0.15318,0.24744 -0.0644,0.0738 -0.16182,0.15868 -0.29221,0.25451 -0.1304,0.0958 -0.28593,0.18381 -0.46659,0.26393 -0.18067,0.0801 -0.41083,0.1626 -0.69047,0.24743 -0.27964,0.0848 -0.59542,0.16025 -0.94733,0.22623 z m 1.89937,-1.65429 c 0,-0.12568 -0.0369,-0.21208 -0.11075,-0.25922 -0.0739,-0.0471 -0.1956,-0.0707 -0.36527,-0.0707 -0.63784,0 -1.095,0.54986 -1.3715,1.64957 0.20423,-0.0188 0.40925,-0.0581 0.61505,-0.11782 0.20581,-0.0597 0.40297,-0.14061 0.59149,-0.24273 0.18852,-0.10211 0.34248,-0.23722 0.46189,-0.40532 0.11939,-0.1681 0.17909,-0.35269 0.17909,-0.55379 z"
           style="font-style:oblique;font-variant:normal;font-stretch:normal;fill:#943f24;fill-opacity:1;font-family:Linux Biolinum Slanted;-inkscape-font-specification:Linux Biolinum Slanted Oblique"
           id="path3128"
           inkscape:connector-curvature="0" />
        <path
           d="m 139.5077,442.79424 0.005,-0.0377 c 0.0754,-0.12882 0.16103,-0.23408 0.25687,-0.31577 0.0958,-0.0817 0.22229,-0.15082 0.3794,-0.20738 l 0.0377,0 c 0.12883,0.0534 0.22544,0.12019 0.28986,0.20031 0.0644,0.0801 0.10447,0.18774 0.12018,0.32284 l -0.009,0.0377 c -0.0817,0.15396 -0.17124,0.27021 -0.26864,0.34877 -0.0974,0.0786 -0.21837,0.1351 -0.36291,0.16967 l -0.0377,0 c -0.14454,-0.0346 -0.24744,-0.0895 -0.30871,-0.16496 -0.0613,-0.0754 -0.095,-0.19324 -0.10133,-0.35348 z"
           style="font-style:oblique;font-variant:normal;font-stretch:normal;fill:#943f24;fill-opacity:1;font-family:Linux Biolinum Slanted;-inkscape-font-specification:Linux Biolinum Slanted Oblique"
           id="path3130"
           inkscape:connector-curvature="0" />
        <path
           d="m 143.41013,439.80143 c 0.18538,-0.21051 0.40925,-0.39982 0.67161,-0.56792 0.26236,-0.1681 0.4988,-0.25215 0.70932,-0.25215 0.10997,0 0.23722,0.022 0.38176,0.066 l 0.033,0.0377 -0.34406,0.71638 -0.0848,0.0189 c -0.044,-0.0408 -0.0998,-0.0723 -0.16732,-0.0943 -0.0676,-0.022 -0.12411,-0.0346 -0.16967,-0.0377 -0.0456,-0.003 -0.10919,-0.005 -0.19088,-0.005 -0.18224,0 -0.39433,0.0911 -0.63626,0.27336 -0.19167,0.1571 -0.31421,0.36919 -0.36762,0.63626 l -0.18852,0.88606 c -0.15082,0.71953 -0.24194,1.29924 -0.27336,1.73912 l -0.0236,0.0283 c -0.088,-0.0188 -0.24194,-0.0283 -0.46188,-0.0283 -0.10055,0 -0.19009,0.003 -0.26864,0.009 -0.0786,0 -0.13354,0.003 -0.16496,0.009 l -0.0424,0.009 -0.005,-0.0283 c 0.15396,-0.42731 0.30949,-1.00702 0.46659,-1.73912 l 0.11312,-0.52786 c 0.13196,-0.61899 0.20423,-1.18613 0.2168,-1.70143 l 0.0236,-0.0283 c 0.0943,-0.006 0.18538,-0.0188 0.27336,-0.0377 0.088,-0.0188 0.15632,-0.0369 0.20502,-0.0542 0.0487,-0.0173 0.11547,-0.0432 0.20031,-0.0778 0.0848,-0.0346 0.1461,-0.0581 0.18381,-0.0707 0.0565,0 0.0785,0.0314 0.066,0.0943 l -0.17439,0.72581 z"
           style="font-style:oblique;font-variant:normal;font-stretch:normal;fill:#943f24;fill-opacity:1;font-family:Linux Biolinum Slanted;-inkscape-font-specification:Linux Biolinum Slanted Oblique"
           id="path3132"
           inkscape:connector-curvature="0" />
        <path
           d="m 147.94882,442.601 c -0.31107,0.27022 -0.58128,0.45638 -0.81065,0.5585 -0.22937,0.10212 -0.45403,0.15318 -0.67397,0.15318 -0.22937,0 -0.42025,-0.0369 -0.57264,-0.11076 -0.15239,-0.0738 -0.25843,-0.17203 -0.31813,-0.29457 -0.0597,-0.12254 -0.0966,-0.26236 -0.11076,-0.41946 -0.0141,-0.1571 7.8e-4,-0.31892 0.0448,-0.48545 l 0.2498,-1.18769 c 0.16338,-0.76666 0.2545,-1.34637 0.27336,-1.73913 l 0.0283,-0.0283 c 0.0848,0.0189 0.23723,0.0283 0.45717,0.0283 0.10055,10e-6 0.19009,-0.002 0.26865,-0.005 0.0754,-0.006 0.12882,-0.0126 0.16024,-0.0189 l 0.0471,-0.005 0.005,0.0283 c -0.1414,0.36762 -0.29693,0.94733 -0.4666,1.73913 l -0.20266,0.95675 c -0.0409,0.16967 -0.0558,0.31421 -0.0448,0.4336 0.011,0.1194 0.0306,0.21681 0.0589,0.29221 0.0283,0.0754 0.0723,0.13433 0.13196,0.17674 0.0597,0.0424 0.11704,0.0715 0.17203,0.0872 0.055,0.0157 0.11547,0.0236 0.18146,0.0236 0.3142,0 0.72581,-0.23879 1.23482,-0.71639 l 0.26393,-1.25367 c 0.16339,-0.76666 0.25451,-1.34637 0.27336,-1.73913 l 0.0236,-0.0283 c 0.0848,0.0189 0.23722,0.0283 0.45717,0.0283 0.10054,10e-6 0.19087,-0.002 0.271,-0.007 0.0801,-0.005 0.13589,-0.0102 0.16731,-0.0165 l 0.0424,-0.005 0.005,0.0283 c -0.1414,0.36762 -0.29693,0.94733 -0.46659,1.73913 l -0.11783,0.55143 c -0.1414,0.65669 -0.21838,1.2741 -0.23094,1.85223 l -0.0236,0.0283 c -0.12254,-0.0188 -0.26393,-0.0283 -0.42417,-0.0283 -0.0503,0 -0.16339,0.009 -0.33934,0.0283 -0.0283,0 -0.0495,-0.002 -0.0636,-0.007 -0.0141,-0.005 -0.0196,-0.0118 -0.0165,-0.0212 l 0.0848,-0.61741 z"
           style="font-style:oblique;font-variant:normal;font-stretch:normal;fill:#943f24;fill-opacity:1;font-family:Linux Biolinum Slanted;-inkscape-font-specification:Linux Biolinum Slanted Oblique"
           id="path3134"
           inkscape:connector-curvature="0" />
      </g>
      <g
         id="g3060"
         transform="matrix(0.96576771,0,0,0.96576771,6.0080097,10.788159)">
        <path
           sodipodi:nodetypes="azzczzczzzzzczzzzzzzzzzzzzzccccza"
           inkscape:connector-curvature="0"
           id="path6425"
           d="m 92.281096,294.26718 c 5.62776,-3.20741 14.528294,-7.87721 13.071894,-14.37908 -1.4564,-6.50188 -4.41486,2.82854 0,7.18954 4.41487,4.36101 12.67178,8.47772 20.12647,7.84313 6.53556,-0.87099 -2.42616,3.06282 -3.78659,8.49673 -1.36043,5.43391 -1.32147,16.53061 1.96079,21.56863 3.28226,5.03802 11.22582,7.01947 10.45751,6.53595 -8.02434,-0.62125 -14.5423,8.92531 -17.64706,15.03268 -3.10476,6.10737 -4.01295,8.34143 -4.57516,15.03268 -0.56221,6.69125 -0.81982,15.24205 1.90211,24.19831 2.72193,8.95626 4.70881,12.45932 9.8788,22.19736 5.16999,9.73804 17.30088,23.38185 22.55082,28.09442 5.24994,4.71257 10.60499,11.37537 5.82192,7.49363 -3.66426,-3.6077 -5.27307,-5.01114 -9.47856,-7.49152 -4.20549,-2.48038 -17.50909,-6.90506 -25.44579,-7.50332 -7.93671,-0.59826 -13.49239,-0.37726 -20.915584,2.29216 -7.42319,2.66942 -14.30976,8.87342 -18.608683,16.57665 -4.29892,7.70323 -8.09897,19.04108 -10.14949,25.90702 -2.05052,6.86594 -1.08792,9.64229 -2.61438,1.96078 -1.52647,-7.68151 -4.79674,-13.61171 -10.98866,-19.20432 -6.19192,-5.59261 -16.45026,-8.98323 -24.95907,-8.24666 -8.50881,0.73657 -15.7363,4.91066 -22.22222,8.49673 -6.48592003,3.58607 -12.30481,10.77363 -15.1509004,12.81818 -2.8460896,2.04455 3.8303504,-14.12407 7.58825039,-21.87588 C 2.855413,439.54917 7.704043,431.90381 14.503303,423.67894 c 6.79926,-8.22487 15.75518,-18.49612 23.02269,-26.97646 7.26751,-8.48034 13.8941,-18.6246 16.84659,-26.61831 2.95249,-7.99371 -8.80437,-13.74037 -6.59405,-7.82343 5.48275,5.5615 14.1355,3.26041 18.35877,-2.63409 5.76535,-6.48915 8.66475,-15.33846 8.49673,-24.04802 0.288,-8.46519 -0.76052,-17.25659 -5.01974,-24.62334 -1.65086,-3.37889 -8.66802,-8.21736 -0.23125,-11.73287 8.436763,-3.51551 16.327483,-1.2105 22.898053,-4.95524 z"
           style="opacity:0.60344825;fill:#953f23;fill-opacity:0.87958117;stroke:none;filter:url(#filter6439)" />
        <path
           transform="translate(225.93395,-164.43516)"
           mask="url(#mask6624)"
           inkscape:connector-curvature="0"
           id="path6603"
           d="m -107.95635,444.5741 c 3.7887,11.68995 -2.87983,23.22444 -14.91531,25.42262 -6.25202,3.27824 13.09042,-7.60228 3.34094,-1.91873 -10.44446,9.21446 -25.56143,-0.68039 -36.68868,4.77522 5.37648,-2.66892 10.22111,-9.46308 9.24257,0.35466 4.46587,11.67485 10.24366,22.78016 10.03286,35.6528 1.93056,11.65283 -1.33947,25.29194 -13.4583,30.02621 -5.70603,8.67214 -29.07773,-4.2773 -13.25189,-7.70034 14.38388,-4.57242 6.22844,13.45394 3.5185,20.02755 -4.84094,11.04109 -16.56628,18.04907 -19.20685,30.32333 -7.28428,9.5499 -15.57432,18.14251 -23.18724,27.14709 -5.26638,8.9132 -7.91074,21.10177 -15.05741,27.99296 -5.90462,4.24643 -9.02207,2.7818 -3.64739,-4.13221 6.60271,-12.01788 9.77456,-26.49929 22.61331,-33.48998 5.79625,-9.43775 11.99442,-17.21307 17.08504,-27.06216 4.23437,-6.56754 12.17411,-11.99908 13.03402,-20.12222 2.68375,-3.79892 9.13647,-17.54402 -0.65915,-15.33834 6.56073,-7.56224 11.23708,-4.22918 18.78413,-0.30866 10.48599,-4.98937 -13.62125,8.96425 -2.26246,1.63869 9.49311,-7.74911 6.84751,-21.25166 6.04859,-32.02944 -0.79916,-12.1296 -9.35172,-21.88546 -10.36833,-33.96605 8.69172,-10.05185 22.62985,-5.77239 34.20437,-5.60952 14.13955,-4.27802 -11.04586,7.52244 -0.54234,2.13169 4.84944,-3.6595 16.34723,-7.9791 4.69196,-1.87076 -3.10941,3.12003 5.34284,-8.83309 2.11084,-13.05431 -3.01264,-6.04947 5.17336,-6.15749 8.53822,-8.8901 z"
           style="opacity:0.25;fill:#800000;fill-opacity:0.87958117;stroke:#311807;stroke-width:12.0654726;stroke-miterlimit:4;stroke-opacity:1;stroke-dasharray:none;filter:url(#filter6609)" />
        <g
           id="g3061">
          <path
             style="opacity:0.6;fill:none;stroke:#953e23;stroke-width:2.05877781px;stroke-linecap:butt;stroke-linejoin:miter;stroke-opacity:1;display:inherit;filter:url(#filter6855)"
             d="m -26.925097,180.93938 c 6.84115,8.74274 6.90637,45.28601 11.76471,48.366"
             id="path6859"
             inkscape:connector-curvature="0"
             sodipodi:nodetypes="cc"
             transform="matrix(0.95258281,0.30427944,-0.30427944,0.95258281,203.23698,88.028776)" />
          <path
             sodipodi:nodetypes="cc"
             inkscape:connector-curvature="0"
             id="path6847"
             d="m 84.215139,261.88147 c 6.84115,8.74274 6.90637,45.28601 11.76471,48.366"
             style="opacity:0.6;fill:none;stroke:#953e23;stroke-width:2.05877781px;stroke-linecap:butt;stroke-linejoin:miter;stroke-opacity:1;display:inherit;filter:url(#filter6855)" />
          <path
             style="fill:url(#radialGradient3087);fill-opacity:1;stroke:#ff4500;stroke-width:2.05877781px;stroke-linecap:butt;stroke-linejoin:miter;stroke-opacity:1"
             d="m 104.6913,290.81988 c 5.62776,-3.20741 14.52828,-7.87721 13.07189,-14.37908 -1.4564,-6.50188 -4.41486,2.82854 0,7.18954 4.41486,4.36101 12.67177,8.47772 20.12646,7.84313 6.53556,-0.87099 -2.42616,3.06282 -3.78659,8.49673 -1.36043,5.43391 -1.32147,16.53061 1.96079,21.56863 3.28226,5.03802 11.22582,7.01947 10.45751,6.53595 -8.02434,-0.62125 -14.5423,8.92531 -17.64706,15.03268 -3.10476,6.10737 -4.01295,8.34143 -4.57516,15.03268 -0.56221,6.69125 -0.81982,15.24205 1.90211,24.19831 2.72193,8.95626 4.70881,12.45932 9.8788,22.19736 5.16999,9.73804 17.30088,23.38185 22.55082,28.09442 5.24994,4.71257 10.60499,11.37537 5.82192,7.49363 -3.66426,-3.6077 -5.27307,-5.01114 -9.47856,-7.49152 -4.20549,-2.48038 -17.50909,-6.90506 -25.44579,-7.50332 -7.93671,-0.59826 -13.49238,-0.37726 -20.91557,2.29216 -7.4232,2.66942 -14.309769,8.87342 -18.608689,16.57665 -4.29892,7.70323 -8.09897,19.04108 -10.14949,25.90702 -2.05052,6.86594 -1.08792,9.64229 -2.614378,1.96078 -1.52646,-7.68151 -4.79673,-13.61171 -10.98865,-19.20432 -6.19192,-5.59261 -16.45026,-8.98323 -24.95907,-8.24666 -8.50881,0.73657 -15.7363,4.91066 -22.22222,8.49673 -6.48592,3.58607 -12.30481,10.77363 -15.1509,12.81818 -2.84609,2.04455 3.83035,-14.12407 7.58825,-21.87588 3.7579,-7.75181 8.60653,-15.39717 15.40579,-23.62204 6.79926,-8.22487 15.75518,-18.49612 23.02269,-26.97646 7.26751,-8.48034 13.8941,-18.6246 16.84659,-26.61831 2.95249,-7.99371 -8.80437,-13.74037 -6.59405,-7.82343 5.48275,5.5615 14.1355,3.26041 18.358758,-2.63409 5.76535,-6.48915 8.66475,-15.33846 8.49673,-24.04802 0.288,-8.46519 -0.76052,-17.25659 -5.01974,-24.62334 -1.65086,-3.37889 -8.668008,-8.21736 -0.23125,-11.73287 8.43676,-3.51551 16.32748,-1.2105 22.898059,-4.95524 z"
             id="path5545"
             inkscape:connector-curvature="0"
             sodipodi:nodetypes="azzczzczzzzzczzzzzzzzzzzzzzccccza" />
          <path
             sodipodi:nodetypes="azzczzczzzzzczzzzzzzzzzzzzzccccza"
             inkscape:connector-curvature="0"
             id="path6339"
             d="m 104.60106,290.87832 c 5.62776,-3.20741 14.52829,-7.87721 13.07189,-14.37908 -1.4564,-6.50188 -4.41486,2.82854 0,7.18954 4.41487,4.36101 12.67178,8.47772 20.12647,7.84313 6.53556,-0.87099 -2.42616,3.06282 -3.78659,8.49673 -1.36043,5.43391 -1.32147,16.53061 1.96079,21.56863 3.28226,5.03802 11.22582,7.01947 10.45751,6.53595 -8.02434,-0.62125 -14.5423,8.92531 -17.64706,15.03268 -3.10476,6.10737 -4.01295,8.34143 -4.57516,15.03268 -0.56221,6.69125 -0.81982,15.24205 1.90211,24.19831 2.72193,8.95626 4.70881,12.45932 9.8788,22.19736 5.16999,9.73804 17.30088,23.38185 22.55082,28.09442 5.24994,4.71257 10.60499,11.37537 5.82192,7.49363 -3.66426,-3.6077 -5.27307,-5.01114 -9.47856,-7.49152 -4.20549,-2.48038 -17.50909,-6.90506 -25.44579,-7.50332 -7.93671,-0.59826 -13.49239,-0.37726 -20.91558,2.29216 -7.42319,2.66942 -14.309766,8.87342 -18.608686,16.57665 -4.29892,7.70323 -8.09897,19.04108 -10.14949,25.90702 -2.050521,6.86594 -1.08792,9.64229 -2.614381,1.96078 -1.52646,-7.68151 -4.79673,-13.61171 -10.98865,-19.20432 -6.19192,-5.59261 -16.45026,-8.98323 -24.95907,-8.24666 -8.50882,0.73657 -15.73631,4.91066 -22.22223,8.49673 -6.48592,3.58607 -12.30481,10.77363 -15.1509,12.81818 -2.84609009,2.04455 3.83035,-14.12407 7.58825,-21.87588 3.7579,-7.75181 8.60653,-15.39717 15.40579,-23.62204 6.79926,-8.22487 15.75519,-18.49612 23.0227,-26.97646 7.26751,-8.48034 13.8941,-18.6246 16.84659,-26.61831 2.95249,-7.99371 -8.80437,-13.74037 -6.59405,-7.82343 5.48275,5.5615 14.1355,3.26041 18.358761,-2.63409 5.76535,-6.48915 8.66475,-15.33846 8.49673,-24.04802 0.288,-8.46519 -0.76052,-17.25659 -5.01974,-24.62334 -1.65086,-3.37889 -8.668011,-8.21736 -0.23125,-11.73287 8.43676,-3.51551 16.32748,-1.2105 22.898056,-4.95524 z"
             style="opacity:0.25;fill:url(#radialGradient3089);fill-opacity:1;stroke:url(#radialGradient3091);stroke-width:2.05113029;stroke-miterlimit:4;stroke-dasharray:none" />
          <path
             style="fill:url(#radialGradient3093);fill-opacity:1;stroke:#5d0000;stroke-width:2.05877781px;stroke-linecap:butt;stroke-linejoin:miter;stroke-opacity:0.84293195"
             d="m 117.4896,384.69918 c -8.2199,2.09942 -15.71008,0.39813 -21.844287,-1.82701 -6.13419,-2.22514 -15.538285,-15.89807 -15.688525,-14.35485 0.209325,14.62342 1.016755,20.31939 14.287935,25.19441 13.271187,4.87502 18.284027,-5.23717 23.220877,-9.37636"
             id="path6630"
             inkscape:connector-curvature="0"
             sodipodi:nodetypes="czczc" />
          <path
             style="fill:url(#radialGradient3095);fill-opacity:1;stroke:#d63a00;stroke-width:2.05877781px;stroke-linecap:butt;stroke-linejoin:miter;stroke-opacity:1"
             d="m 107.44185,343.64499 c -2.98462,0.82196 -3.22998,1.70171 -5.45768,3.50952 -2.227707,1.80781 -6.729287,9.07361 -0.88421,9.19398 5.8451,0.12037 9.40187,-3.47298 11.73709,-6.53775 2.33522,-3.06477 1.85256,-5.36847 0.36378,-7.52977 -1.48878,-2.1613 -4.6971,-2.56077 -7.80127,-2.55185 -3.10418,0.009 -9.761237,2.04059 -9.882117,3.29528"
             id="path6664"
             inkscape:connector-curvature="0"
             sodipodi:nodetypes="czzzzzc" />
          <path
             style="fill:none;stroke:url(#linearGradient3097);stroke-width:2.05877781px;stroke-linecap:butt;stroke-linejoin:miter;stroke-opacity:1;display:inherit"
             d="m 91.385477,261.19201 c 6.84115,8.74274 6.90637,45.28601 11.764713,48.366"
             id="path6827"
             inkscape:connector-curvature="0"
             sodipodi:nodetypes="cc" />
          <path
             style="opacity:0.6;fill:#953e23;fill-opacity:0.99607843;stroke:none;display:inherit;filter:url(#filter6797)"
             d="m 84.265014,251.13086 c -4.51972,0.68241 -5.53131,0.80959 -7.550981,2.53264 -1.27902,1.09118 -2.48156,2.79457 -2.33707,4.46959 0.16044,1.85992 1.7713,3.54485 3.406619,4.44529 2.467592,1.35869 5.675992,1.40765 8.416782,0.75716 3.02587,-0.71816 6.34898,-2.24173 7.92557,-4.9224 1.2739,-2.16601 1.78926,-5.46037 0.36378,-7.52977 -1.55207,-2.25319 -5.06527,-2.55969 -7.80127,-2.55186 -3.47233,0.01 -9.761221,2.0406 -9.882101,3.29529"
             id="path6829"
             inkscape:connector-curvature="0"
             sodipodi:nodetypes="caaaaaaac" />
          <path
             sodipodi:nodetypes="caaaaaaac"
             inkscape:connector-curvature="0"
             id="path6831"
             d="m 87.833916,250.60282 c -4.51972,0.68241 -5.53131,0.80959 -7.55098,2.53264 -1.27902,1.09118 -2.481564,2.79457 -2.337074,4.46959 0.16044,1.85992 1.771304,3.54485 3.406624,4.44529 2.46759,1.35869 5.67599,1.40765 8.41678,0.75716 3.02587,-0.71816 6.34898,-2.24173 7.92557,-4.9224 1.2739,-2.16601 1.78926,-5.46037 0.36378,-7.52977 -1.55207,-2.25319 -5.06527,-2.55969 -7.80127,-2.55186 -3.47233,0.01 -9.76122,2.0406 -9.8821,3.29529"
             style="fill:url(#radialGradient3099);fill-opacity:1;stroke:none;display:inherit" />
          <path
             transform="translate(31.621293,8.0895784)"
             mask="url(#mask6769)"
             style="opacity:0.51293137;fill:none;stroke:#4d1500;stroke-width:2.05877781px;stroke-linecap:butt;stroke-linejoin:miter;stroke-opacity:1;display:inherit;filter:url(#filter6761)"
             d="m 56.402226,242.28916 c -4.51972,0.68241 -5.53131,0.80959 -7.55098,2.53264 -1.27902,1.09118 -2.48156,2.79457 -2.33707,4.46959 0.16044,1.85992 1.7713,3.54485 3.40662,4.44529 2.46759,1.35869 5.67599,1.40765 8.41678,0.75716 3.02587,-0.71816 6.34898,-2.24173 7.92557,-4.9224 1.2739,-2.16601 1.78926,-5.46037 0.36378,-7.52977 -1.55207,-2.25319 -5.06527,-2.55969 -7.80127,-2.55186 -3.47233,0.01 -9.76122,2.0406 -9.8821,3.29529"
             id="path6833"
             inkscape:connector-curvature="0"
             sodipodi:nodetypes="caaaaaaac" />
          <path
             style="fill:none;stroke:#c83600;stroke-width:2.05877781px;stroke-linecap:butt;stroke-linejoin:miter;stroke-opacity:1;display:inherit"
             d="m 94.528808,252.48932 c 0.3666,4.08513 -2.26801,6.01961 -5.70573,6.78811 -1.75184,0.39051 -3.48961,0.42918 -5.38312,0.12225"
             id="path6835"
             inkscape:connector-curvature="0"
             sodipodi:nodetypes="ccc" />
          <path
             style="fill:none;stroke:#c83600;stroke-width:2.05877781px;stroke-linecap:butt;stroke-linejoin:miter;stroke-opacity:1;display:inherit"
             d="m 88.180918,258.75686 c 1.24488,-2.2037 3.11652,-2.78311 5.31981,-3.05207"
             id="path6837"
             inkscape:connector-curvature="0"
             sodipodi:nodetypes="cc" />
          <path
             sodipodi:nodetypes="ccc"
             inkscape:connector-curvature="0"
             id="path6839"
             d="m 94.528808,252.48932 c 0.3666,4.08513 -2.26801,6.01961 -5.70573,6.78811 -1.75184,0.39051 -3.48961,0.42918 -5.38312,0.12225"
             style="fill:none;stroke:#5c1900;stroke-width:2.05877781px;stroke-linecap:butt;stroke-linejoin:miter;stroke-opacity:0.78431373;display:inherit" />
          <path
             sodipodi:nodetypes="cc"
             inkscape:connector-curvature="0"
             id="path6841"
             d="m 88.180918,258.75686 c 1.24488,-2.2037 3.11652,-2.78311 5.31981,-3.05207"
             style="fill:none;stroke:#5c1900;stroke-width:2.05877781px;stroke-linecap:butt;stroke-linejoin:miter;stroke-opacity:0.78431373;display:inherit" />
          <path
             sodipodi:nodetypes="cc"
             inkscape:connector-curvature="0"
             id="path3239_0-4"
             d="m 127.63919,251.13689 c 4.01544,10.34955 -6.50727,45.34508 -2.74936,49.7003"
             style="fill:none;stroke:url(#linearGradient3101);stroke-width:2.05877781px;stroke-linecap:butt;stroke-linejoin:miter;stroke-opacity:1;display:inherit" />
          <path
             sodipodi:nodetypes="caaaaaaac"
             inkscape:connector-curvature="0"
             id="path6789"
             d="m 126.79755,243.20221 c -4.51972,0.68241 -5.53131,0.80959 -7.55098,2.53264 -1.27902,1.09118 -2.48156,2.79457 -2.33707,4.46959 0.16044,1.85992 1.7713,3.54485 3.40662,4.44529 2.46759,1.35869 5.67599,1.40765 8.41678,0.75716 3.02587,-0.71816 6.34898,-2.24173 7.92557,-4.9224 1.2739,-2.16601 1.78926,-5.46037 0.36378,-7.52977 -1.55207,-2.25319 -5.06527,-2.55969 -7.80127,-2.55186 -3.47233,0.01 -9.76122,2.0406 -9.8821,3.29529"
             style="opacity:0.6;fill:#953e23;fill-opacity:0.99607843;stroke:none;display:inherit;filter:url(#filter6797)" />
          <path
             style="fill:url(#radialGradient3103);fill-opacity:1;stroke:none;display:inherit"
             d="m 130.84907,242.19155 c -4.51972,0.68241 -5.53131,0.80959 -7.55098,2.53264 -1.27902,1.09118 -2.48156,2.79457 -2.33707,4.46959 0.16044,1.85992 1.7713,3.54485 3.40662,4.44529 2.46759,1.35869 5.67599,1.40765 8.41678,0.75716 3.02587,-0.71816 6.34898,-2.24173 7.92557,-4.9224 1.2739,-2.16601 1.78926,-5.46037 0.36378,-7.52977 -1.55207,-2.25319 -5.06527,-2.55969 -7.80127,-2.55186 -3.47233,0.01 -9.76122,2.0406 -9.8821,3.29529"
             id="path6743"
             inkscape:connector-curvature="0"
             sodipodi:nodetypes="caaaaaaac" />
          <path
             sodipodi:nodetypes="caaaaaaac"
             inkscape:connector-curvature="0"
             id="path6741"
             d="m 56.402226,242.28916 c -4.51972,0.68241 -5.53131,0.80959 -7.55098,2.53264 -1.27902,1.09118 -2.48156,2.79457 -2.33707,4.46959 0.16044,1.85992 1.7713,3.54485 3.40662,4.44529 2.46759,1.35869 5.67599,1.40765 8.41678,0.75716 3.02587,-0.71816 6.34898,-2.24173 7.92557,-4.9224 1.2739,-2.16601 1.78926,-5.46037 0.36378,-7.52977 -1.55207,-2.25319 -5.06527,-2.55969 -7.80127,-2.55186 -3.47233,0.01 -9.76122,2.0406 -9.8821,3.29529"
             style="opacity:0.51293137;fill:none;stroke:#4d1500;stroke-width:2.05877781px;stroke-linecap:butt;stroke-linejoin:miter;stroke-opacity:1;display:inherit;filter:url(#filter6761)"
             mask="url(#mask6769)"
             transform="translate(74.636433,-0.32167857)" />
          <path
             sodipodi:nodetypes="ccc"
             inkscape:connector-curvature="0"
             id="path3287_0-3"
             d="m 137.54396,244.07805 c 0.3666,4.08513 -2.26801,6.01961 -5.70573,6.78811 -1.75184,0.39051 -3.48961,0.42918 -5.38312,0.12225"
             style="fill:none;stroke:#c83600;stroke-width:2.05877781px;stroke-linecap:butt;stroke-linejoin:miter;stroke-opacity:1;display:inherit" />
          <path
             sodipodi:nodetypes="cc"
             inkscape:connector-curvature="0"
             id="path3291_0-0"
             d="m 131.19607,250.34559 c 1.24488,-2.2037 3.11652,-2.78311 5.31981,-3.05207"
             style="fill:none;stroke:#c83600;stroke-width:2.05877781px;stroke-linecap:butt;stroke-linejoin:miter;stroke-opacity:1;display:inherit" />
          <path
             style="fill:none;stroke:#5c1900;stroke-width:2.05877781px;stroke-linecap:butt;stroke-linejoin:miter;stroke-opacity:0.78431373;display:inherit"
             d="m 137.54396,244.07805 c 0.3666,4.08513 -2.26801,6.01961 -5.70573,6.78811 -1.75184,0.39051 -3.48961,0.42918 -5.38312,0.12225"
             id="path6678-4"
             inkscape:connector-curvature="0"
             sodipodi:nodetypes="ccc" />
          <path
             style="fill:none;stroke:#5c1900;stroke-width:2.05877781px;stroke-linecap:butt;stroke-linejoin:miter;stroke-opacity:0.78431373;display:inherit"
             d="m 131.19607,250.34559 c 1.24488,-2.2037 3.11652,-2.78311 5.31981,-3.05207"
             id="path6680-1"
             inkscape:connector-curvature="0"
             sodipodi:nodetypes="cc" />
        </g>
      </g>
      <text
         xml:space="preserve"
         style="font-size:14.85400677px;font-style:normal;font-weight:normal;line-height:125%;letter-spacing:0px;word-spacing:0px;fill:#ff4500;fill-opacity:1;stroke:none;font-family:Sans"
         x="91.945251"
         y="454.8161"
         id="text3105"
         sodipodi:linespacing="125%"><tspan
           sodipodi:role="line"
           id="tspan3107"
           x="91.945251"
           y="454.8161"
           style="font-style:oblique;font-variant:normal;font-weight:normal;font-stretch:normal;font-family:Linux Biolinum Slanted;-inkscape-font-specification:Linux Biolinum Slanted Oblique">autosome.ru</tspan></text>
    </g>
  </g>
</svg>
