<?xml version="1.0" encoding="UTF-8" standalone="no"?>
<!-- Created with Inkscape (http://www.inkscape.org/) -->

<svg
   xmlns:dc="http://purl.org/dc/elements/1.1/"
   xmlns:cc="http://creativecommons.org/ns#"
   xmlns:rdf="http://www.w3.org/1999/02/22-rdf-syntax-ns#"
   xmlns:svg="http://www.w3.org/2000/svg"
   xmlns="http://www.w3.org/2000/svg"
   xmlns:sodipodi="http://sodipodi.sourceforge.net/DTD/sodipodi-0.dtd"
   xmlns:inkscape="http://www.inkscape.org/namespaces/inkscape"
   width="744.09448819"
   height="1052.3622047"
   id="svg6110"
   version="1.1"
   inkscape:version="0.48.2 r9819"
   sodipodi:docname="New document 2">
  <defs
     id="defs6112" />
  <sodipodi:namedview
     id="base"
     pagecolor="#ffffff"
     bordercolor="#666666"
     borderopacity="1.0"
     inkscape:pageopacity="0.0"
     inkscape:pageshadow="2"
     inkscape:zoom="0.35"
     inkscape:cx="325"
     inkscape:cy="520"
     inkscape:document-units="px"
     inkscape:current-layer="layer1"
     showgrid="false"
     inkscape:window-width="1366"
     inkscape:window-height="746"
     inkscape:window-x="-8"
     inkscape:window-y="-8"
     inkscape:window-maximized="1" />
  <metadata
     id="metadata6115">
    <rdf:RDF>
      <cc:Work
         rdf:about="">
        <dc:format>image/svg+xml</dc:format>
        <dc:type
           rdf:resource="http://purl.org/dc/dcmitype/StillImage" />
        <dc:title></dc:title>
      </cc:Work>
    </rdf:RDF>
  </metadata>
  <g
     inkscape:label="Layer 1"
     inkscape:groupmode="layer"
     id="layer1">
    <g
       style="display:inherit;stroke:#ff4500;stroke-opacity:1"
       transform="matrix(4.1440566,0,0,4.1440566,41.675163,-957.02654)"
       id="g5746_0">
      <path
         sodipodi:nodetypes="azzczzczzzzzczzzzzzzzzzzzzzccccza"
         inkscape:connector-curvature="0"
         id="path3237_0"
         d="m 99.313536,290.88883 c 5.627764,-3.20741 14.528294,-7.87721 13.071894,-14.37908 -1.4564,-6.50188 -4.41486,2.82854 0,7.18954 4.41486,4.36101 12.67177,8.47772 20.12646,7.84313 6.53556,-0.87099 -2.42616,3.06282 -3.78659,8.49673 -1.36043,5.43391 -1.32147,16.53061 1.96079,21.56863 3.28226,5.03802 11.22582,7.01947 10.45751,6.53595 -8.02434,-0.62125 -14.5423,8.92531 -17.64706,15.03268 -3.10476,6.10737 -4.01295,8.34143 -4.57516,15.03268 -0.56221,6.69125 -0.81982,15.24205 1.90211,24.19831 2.72193,8.95626 4.70881,12.45932 9.8788,22.19736 5.16999,9.73804 17.30088,23.38185 22.55082,28.09442 5.24994,4.71257 10.60499,11.37537 5.82192,7.49363 -3.66426,-3.6077 -5.27307,-5.01114 -9.47856,-7.49152 -4.20549,-2.48038 -17.50909,-6.90506 -25.44579,-7.50332 -7.9367,-0.59826 -13.49238,-0.37726 -20.91557,2.29216 -7.423194,2.66942 -14.309764,8.87342 -18.608684,16.57665 -4.29892,7.70323 -8.09897,19.04108 -10.14949,25.90702 -2.05052,6.86594 -1.08792,9.64229 -2.61438,1.96078 -1.52646,-7.68151 -4.79673,-13.61171 -10.98865,-19.20432 -6.19192,-5.59261 -16.45026,-8.98323 -24.95907,-8.24666 -8.50881,0.73657 -15.7363,4.91066 -22.222218,8.49673 -6.48592,3.58607 -12.30481,10.77363 -15.1509,12.81818 -2.84609,2.04455 3.83035,-14.12407 7.58825,-21.87588 3.7579,-7.75181 8.606528,-15.39717 15.405788,-23.62204 6.79926,-8.22487 15.75518,-18.49612 23.02269,-26.97646 7.26751,-8.48034 13.8941,-18.6246 16.84659,-26.61831 2.95249,-7.99371 -8.80437,-13.74037 -6.59405,-7.82343 5.48275,5.5615 14.1355,3.26041 18.35876,-2.63409 5.76535,-6.48915 8.66475,-15.33846 8.49673,-24.04802 0.288,-8.46519 -0.76052,-17.25659 -5.01974,-24.62334 -1.65086,-3.37889 -8.66801,-8.21736 -0.23125,-11.73287 8.43676,-3.51551 16.32748,-1.2105 22.89805,-4.95524 z"
         style="fill:none;stroke:#ff4500;stroke-width:2.05877781000000000px;stroke-linecap:butt;stroke-linejoin:miter;stroke-opacity:1" />
      <path
         sodipodi:nodetypes="cc"
         inkscape:connector-curvature="0"
         id="path3239_0"
         d="m 78.398496,266.70583 c 6.84115,8.74274 6.90637,45.28601 11.76471,48.366"
         style="fill:none;stroke:#ff4500;stroke-width:2.05877781000000000px;stroke-linecap:butt;stroke-linejoin:miter;stroke-opacity:1" />
      <path
         sodipodi:nodetypes="caaaaaaac"
         inkscape:connector-curvature="0"
         id="path3241_0"
         d="m 77.744906,256.9019 c -4.51972,0.68241 -5.53131,0.80959 -7.55098,2.53264 -1.27902,1.09118 -2.48156,2.79457 -2.33707,4.46959 0.16044,1.85992 1.7713,3.54485 3.40662,4.44529 2.46759,1.35869 5.67599,1.40765 8.41678,0.75716 3.02587,-0.71816 6.34898,-2.24173 7.92557,-4.9224 1.2739,-2.16601 1.78926,-5.46037 0.36378,-7.52977 -1.55207,-2.25319 -5.06527,-2.55969 -7.80127,-2.55186 -3.47233,0.01 -9.76122,2.0406 -9.8821,3.29529"
         style="fill:none;stroke:#ff4500;stroke-width:2.05877781000000000px;stroke-linecap:butt;stroke-linejoin:miter;stroke-opacity:1" />
      <path
         sodipodi:nodetypes="cac"
         inkscape:connector-curvature="0"
         id="path3243_0"
         d="m 114.34622,309.18948 c -1.45359,-11.13566 3.27122,-22.81966 3.92551,-34.3135 0.42719,-7.50427 0.007,-15.03695 -0.004,-22.54924"
         style="fill:none;stroke:#ff4500;stroke-width:2.05877781000000000px;stroke-linecap:butt;stroke-linejoin:miter;stroke-opacity:1" />
      <path
         sodipodi:nodetypes="czczc"
         inkscape:connector-curvature="0"
         id="path3251_0"
         d="m 116.58489,379.96402 c -8.2199,2.09942 -15.71008,0.39813 -21.844274,-1.82701 -6.13419,-2.22514 -15.53828,-15.89807 -15.68852,-14.35485 0.20932,14.62342 1.01675,20.31939 14.28793,25.19441 13.271184,4.87502 18.284014,-5.23717 23.220864,-9.37636"
         style="fill:none;stroke:#ff4500;stroke-width:2.05877781000000000px;stroke-linecap:butt;stroke-linejoin:miter;stroke-opacity:1" />
      <path
         sodipodi:nodetypes="caaaaaaac"
         inkscape:connector-curvature="0"
         id="path3241-1_0"
         d="m 118.24913,242.4016 c -4.51972,0.68241 -5.53131,0.80959 -7.55098,2.53264 -1.27902,1.09118 -2.48156,2.79456 -2.33707,4.46958 0.16044,1.85993 1.7713,3.54485 3.40662,4.44529 2.46759,1.3587 5.67599,1.40766 8.41678,0.75716 3.02587,-0.71816 6.34898,-2.24173 7.92557,-4.9224 1.2739,-2.166 1.78926,-5.46036 0.36378,-7.52977 -1.55207,-2.25318 -5.06527,-2.55969 -7.80127,-2.55185 -3.47233,0.01 -9.76122,2.0406 -9.8821,3.29528"
         style="fill:none;stroke:#ff4500;stroke-width:2.05877781000000000px;stroke-linecap:butt;stroke-linejoin:miter;stroke-opacity:1" />
      <path
         sodipodi:nodetypes="caccc"
         inkscape:connector-curvature="0"
         id="path3285_0"
         d="m 125.66182,244.63907 c -0.27245,1.41018 -0.28438,3.48286 -1.44649,4.58759 -1.4945,1.42071 -3.90388,1.29268 -5.98633,1.55937 -0.20064,0.0127 -0.43257,0.1397 -0.61701,0.0973 -0.0128,-0.0603 0.0644,-0.1037 0.0946,-0.13747"
         style="fill:none;stroke:#ff4500;stroke-width:2.05877781000000000px;stroke-linecap:butt;stroke-linejoin:miter;stroke-opacity:1" />
      <path
         sodipodi:nodetypes="ccc"
         inkscape:connector-curvature="0"
         id="path3287_0"
         d="m 83.717536,258.86155 c 0.3666,4.08513 -2.26801,6.01961 -5.70573,6.78811 -1.75184,0.39051 -3.48961,0.42918 -5.38312,0.12225"
         style="fill:none;stroke:#ff4500;stroke-width:2.05877781000000000px;stroke-linecap:butt;stroke-linejoin:miter;stroke-opacity:1" />
      <path
         sodipodi:nodetypes="ccc"
         inkscape:connector-curvature="0"
         id="path3289_0"
         d="m 119.23358,250.42448 c 0.93772,-1.65618 3.33116,-3.21415 4.99425,-2.79273 -0.004,0.0432 -0.0471,0.087 -0.0925,0.0607"
         style="fill:none;stroke:#ff4500;stroke-width:2.05877781000000000px;stroke-linecap:butt;stroke-linejoin:miter;stroke-opacity:1" />
      <path
         sodipodi:nodetypes="cc"
         inkscape:connector-curvature="0"
         id="path3291_0"
         d="m 77.369646,265.12909 c 1.24488,-2.2037 3.11652,-2.78311 5.31981,-3.05207"
         style="fill:none;stroke:#ff4500;stroke-width:2.05877781000000000px;stroke-linecap:butt;stroke-linejoin:miter;stroke-opacity:1" />
      <path
         sodipodi:nodetypes="czzzzzc"
         inkscape:connector-curvature="0"
         id="path3241-7_0"
         d="m 105.09683,338.48775 c -2.98462,0.82196 -3.22997,1.70171 -5.457674,3.50952 -2.2277,1.80781 -6.72928,9.07361 -0.8842,9.19398 5.845084,0.12037 9.401854,-3.47298 11.737074,-6.53775 2.33522,-3.06477 1.85256,-5.36847 0.36378,-7.52977 -1.48878,-2.1613 -4.6971,-2.56077 -7.80127,-2.55185 -3.104174,0.009 -9.761224,2.04059 -9.882104,3.29528"
         style="fill:none;stroke:#ff4500;stroke-width:2.05877781000000000px;stroke-linecap:butt;stroke-linejoin:miter;stroke-opacity:1" />
    </g>
  </g>
</svg>
