<?xml version="1.0" encoding="UTF-8" standalone="no"?>
<!-- Created with Inkscape (http://www.inkscape.org/) -->

<svg
   xmlns:dc="http://purl.org/dc/elements/1.1/"
   xmlns:cc="http://creativecommons.org/ns#"
   xmlns:rdf="http://www.w3.org/1999/02/22-rdf-syntax-ns#"
   xmlns:svg="http://www.w3.org/2000/svg"
   xmlns="http://www.w3.org/2000/svg"
   xmlns:xlink="http://www.w3.org/1999/xlink"
   xmlns:sodipodi="http://sodipodi.sourceforge.net/DTD/sodipodi-0.dtd"
   xmlns:inkscape="http://www.inkscape.org/namespaces/inkscape"
   width="1052.3622"
   height="744.09448"
   id="svg3279"
   version="1.1"
   inkscape:version="0.48.2 r9819"
   sodipodi:docname="New document 2">
  <defs
     id="defs3281">
    <radialGradient
       inkscape:collect="always"
       xlink:href="#linearGradient4479"
       id="radialGradient3153"
       gradientUnits="userSpaceOnUse"
       gradientTransform="matrix(1.3110181,-2.416266,2.1248972,1.152927,-915.9467,784.50322)"
       cx="342.03656"
       cy="371.46713"
       fx="342.03656"
       fy="371.46713"
       r="72.992485" />
    <linearGradient
       inkscape:collect="always"
       id="linearGradient4479">
      <stop
         style="stop-color:#cccccc;stop-opacity:1"
         offset="0"
         id="stop4481" />
      <stop
         style="stop-color:#e6e6e6;stop-opacity:0;"
         offset="1"
         id="stop4483" />
    </linearGradient>
  </defs>
  <sodipodi:namedview
     id="base"
     pagecolor="#ffffff"
     bordercolor="#666666"
     borderopacity="1.0"
     inkscape:pageopacity="0.0"
     inkscape:pageshadow="2"
     inkscape:zoom="0.35"
     inkscape:cx="375"
     inkscape:cy="238.29647"
     inkscape:document-units="px"
     inkscape:current-layer="layer1"
     showgrid="false"
     inkscape:window-width="1366"
     inkscape:window-height="746"
     inkscape:window-x="-8"
     inkscape:window-y="-8"
     inkscape:window-maximized="1" />
  <metadata
     id="metadata3284">
    <rdf:RDF>
      <cc:Work
         rdf:about="">
        <dc:format>image/svg+xml</dc:format>
        <dc:type
           rdf:resource="http://purl.org/dc/dcmitype/StillImage" />
        <dc:title></dc:title>
      </cc:Work>
    </rdf:RDF>
  </metadata>
  <g
     inkscape:label="Layer 1"
     inkscape:groupmode="layer"
     id="layer1"
     transform="translate(0,-308.2677)">
    <g
       id="g3148"
       transform="matrix(5.075029,0,0,5.075029,-1038.0177,-929.63253)"
       inkscape:export-filename="D:\Gbx\autosome\autosome\genometricorr_64.png"
       inkscape:export-xdpi="59.82"
       inkscape:export-ydpi="59.82">
      <path
         inkscape:export-ydpi="300"
         inkscape:export-xdpi="300"
         inkscape:export-filename="D:\Temp\genometricorr3.png"
         inkscape:connector-curvature="0"
         id="path4294"
         d="m 253.8485,334.34321 80,0"
         style="fill:none;stroke:#000000;stroke-width:0.40578535;stroke-linecap:butt;stroke-linejoin:miter;stroke-miterlimit:4;stroke-opacity:1;stroke-dasharray:none" />
      <path
         inkscape:export-ydpi="300"
         inkscape:export-xdpi="300"
         inkscape:export-filename="D:\Temp\genometricorr3.png"
         style="fill:none;stroke:#000000;stroke-width:0.8115707px;stroke-linecap:butt;stroke-linejoin:miter;stroke-opacity:1"
         d="m 276.53906,326.7205 c 7.11583,-10.5997 -1.78468,-29.16208 2.94076,-17.06314"
         id="path3957"
         inkscape:connector-curvature="0"
         sodipodi:nodetypes="cc"
         transform="matrix(0.68380878,-0.72966125,0.72966125,0.68380878,-147.4764,336.6133)" />
      <path
         inkscape:export-ydpi="300"
         inkscape:export-xdpi="300"
         inkscape:export-filename="D:\Temp\genometricorr3.png"
         style="fill:url(#radialGradient3153);fill-opacity:1;stroke:#000000;stroke-width:0.8115707px;stroke-linecap:butt;stroke-linejoin:miter;stroke-opacity:1"
         d="m 360.97186,339.80679 c 1.74719,5.08218 9.64656,17.95041 -6.64898,19.17664 -15.57407,1.26024 -11.65549,30.52412 -28.21702,22.4667 -12.66579,-10.31752 -6.97324,-13.0438 -8.49022,-21.01629 -1.51697,-7.97249 -6.82758,-14.25824 -13.79322,-7.27284 -7.88595,8.08332 -7.68602,-11.14056 -15.20118,-10.88508 -13.05186,1.81647 -3.82413,-9.89068 -15.99575,-20.80536 -12.17162,-10.91469 -11.83572,-14.14551 -10.83458,-21.89727 0.59767,-4.38681 14.38107,-9.62999 4.44721,-11.73061 -5.87968,-0.39784 -17.55143,3.61423 -13.19741,11.18754 7.46538,6.58549 -11.95974,27.35477 5.62266,26.71362 9.88321,-2.24747 0.13751,23.41329 13.72324,22.71056 9.62194,-0.7719 -1.53629,21.8978 9.08115,21.16436 11.83709,-6.27584 14.02818,-1.90866 19.35772,1.9476 4.15068,10.86343 -1.74504,16.3375 10.41902,15.39723 8.4182,-10.12008 10.97105,4.32137 14.56122,10.00283 7.29885,10.8152 24.98595,-6.43546 28.02501,-16.60943 1.2686,-7.30516 5.24586,-15.86504 14.12468,-13.41849 7.83374,-0.61933 14.69646,-10.44588 10.62015,-16.57097 -12.88834,-17.16105 8.95101,-17.63443 1.24906,-25.70061 -6.92206,-8.12092 17.97369,-4.82684 8.43003,-9.57508 -5.51552,-2.02164 -24.56724,-23.1862 -14.88107,-20.31013 8.87076,-0.22531 23.63574,-1.1896 17.09492,-5.17214 -7.0832,-5.82098 -16.89154,-5.11226 -25.45682,-5.09205 -8.60753,1.50927 -17.38416,0.94797 -25.99355,2.27261 -6.31073,1.1424 -14.36677,5.0335 -14.1768,12.48324 1.06599,9.48871 10.3584,14.49101 16.98877,20.05074 6.31405,4.78049 13.83346,9.14313 22.06117,8.25709 20.87905,2.77178 -6.78357,4.81176 -2.91941,12.22559 z"
         id="path3953"
         inkscape:connector-curvature="0"
         sodipodi:nodetypes="ccczcczcccccccccccccccccccccc"
         transform="matrix(0.68380878,-0.72966125,0.72966125,0.68380878,-147.4764,336.6133)" />
      <path
         inkscape:export-ydpi="300"
         inkscape:export-xdpi="300"
         inkscape:export-filename="D:\Temp\genometricorr3.png"
         style="fill:none;stroke:#000000;stroke-width:0.8115707px;stroke-linecap:butt;stroke-linejoin:miter;stroke-opacity:1"
         d="m 361.12953,339.69956 c -1.9331,19.31334 -16.60702,12.09247 -20.80052,3.30463 -0.54063,-0.73499 -1.4002,0.11149 -1.42283,0.73598"
         id="path3955"
         inkscape:connector-curvature="0"
         sodipodi:nodetypes="ccc"
         transform="matrix(0.68380878,-0.72966125,0.72966125,0.68380878,-147.4764,336.6133)" />
      <path
         inkscape:export-ydpi="300"
         inkscape:export-xdpi="300"
         inkscape:export-filename="D:\Temp\genometricorr3.png"
         style="fill:none;stroke:#000000;stroke-width:0.8115707px;stroke-linecap:butt;stroke-linejoin:miter;stroke-opacity:1"
         d="m 262.80427,310.61257 c 2.82643,1.09908 3.09223,-21.0155 13.57234,-15.82428"
         id="path3959"
         inkscape:connector-curvature="0"
         sodipodi:nodetypes="cc"
         transform="matrix(0.68380878,-0.72966125,0.72966125,0.68380878,-147.4764,336.6133)" />
      <path
         inkscape:export-ydpi="300"
         inkscape:export-xdpi="300"
         inkscape:export-filename="D:\Temp\genometricorr3.png"
         style="fill:none;stroke:#000000;stroke-width:0.8115707px;stroke-linecap:butt;stroke-linejoin:miter;stroke-opacity:1"
         d="m 352.36332,301.12661 c 6.94905,-4.01506 14.02962,1.83215 19.44544,3.78807"
         id="path3961"
         inkscape:connector-curvature="0"
         transform="matrix(0.68380878,-0.72966125,0.72966125,0.68380878,-147.4764,336.6133)" />
      <path
         inkscape:export-ydpi="300"
         inkscape:export-xdpi="300"
         inkscape:export-filename="D:\Temp\genometricorr3.png"
         style="fill:none;stroke:#000000;stroke-width:0.8115707px;stroke-linecap:butt;stroke-linejoin:miter;stroke-opacity:1"
         d="m 358.92931,300.11645 c -2.21856,4.37 5.16548,7.6365 7.32361,3.53554"
         id="path3963"
         inkscape:connector-curvature="0"
         transform="matrix(0.68380878,-0.72966125,0.72966125,0.68380878,-147.4764,336.6133)" />
      <path
         inkscape:export-ydpi="300"
         inkscape:export-xdpi="300"
         inkscape:export-filename="D:\Temp\genometricorr3.png"
         style="fill:none;stroke:#000000;stroke-width:0.8115707px;stroke-linecap:butt;stroke-linejoin:miter;stroke-opacity:1"
         d="m 329.15557,308.37692 c 8.20486,5.65102 15.24433,10.73076 24.60317,10.04142 3.11769,0.34102 7.74101,-3.3492 3.53227,-1.04225 -1.68382,0.99497 -6.05927,1.87876 -7.04849,3.62773"
         id="path3965"
         inkscape:connector-curvature="0"
         sodipodi:nodetypes="cccc"
         transform="matrix(0.68380878,-0.72966125,0.72966125,0.68380878,-147.4764,336.6133)" />
      <path
         inkscape:export-ydpi="300"
         inkscape:export-xdpi="300"
         inkscape:export-filename="D:\Temp\genometricorr3.png"
         style="fill:#ffffff;stroke:#000000;stroke-width:0.8115707;stroke-linecap:butt;stroke-linejoin:miter;stroke-miterlimit:4;stroke-opacity:1;stroke-dasharray:none"
         d="m 336.73855,341.06475 c 1.57815,-2.3307 -3.2352,-1.42515 -3.12536,-2.6929 1.85025,-1.73017 5.13906,-2.61353 7.20383,1.59551 2.06477,4.20905 -5.6566,3.4281 -4.07847,1.09739 z"
         id="path3941-7-2"
         inkscape:connector-curvature="0"
         sodipodi:nodetypes="zczz"
         inkscape:transform-center-y="5.3033009"
         transform="matrix(0.68380878,-0.72966125,0.72966125,0.68380878,-147.4764,336.6133)" />
      <path
         inkscape:export-ydpi="300"
         inkscape:export-xdpi="300"
         inkscape:export-filename="D:\Temp\genometricorr3.png"
         inkscape:transform-center-x="-5.0507618"
         style="fill:none;stroke:#000000;stroke-width:0.81157064px;stroke-linecap:butt;stroke-linejoin:miter;stroke-opacity:1"
         d="m 332.13062,351.20912 c 4.92873,4.10366 16.29675,11.40874 17.02372,9.53197"
         id="path3955-7"
         inkscape:connector-curvature="0"
         sodipodi:nodetypes="cc"
         transform="matrix(0.68380878,-0.72966125,0.72966125,0.68380878,-147.4764,336.6133)" />
      <path
         inkscape:export-ydpi="300"
         inkscape:export-xdpi="300"
         inkscape:export-filename="D:\Temp\genometricorr3.png"
         style="fill:#ffffff;stroke:#000000;stroke-width:0.8115707;stroke-linecap:butt;stroke-linejoin:miter;stroke-miterlimit:4;stroke-opacity:1;stroke-dasharray:none"
         d="m 330.68158,349.09907 c 1.91732,2.06073 -2.97799,1.90501 -2.67479,3.14087 2.09397,1.42554 5.47941,1.79343 6.8734,-2.68275 1.39398,-4.47618 -6.11591,-2.51887 -4.19861,-0.45812 z"
         id="path3941-7-2-6"
         inkscape:connector-curvature="0"
         sodipodi:nodetypes="zczz"
         inkscape:transform-center-y="1.1081694"
         inkscape:transform-center-x="5.2819207"
         transform="matrix(0.68380878,-0.72966125,0.72966125,0.68380878,-147.4764,336.6133)" />
      <path
         inkscape:export-ydpi="300"
         inkscape:export-xdpi="300"
         inkscape:export-filename="D:\Temp\genometricorr3.png"
         style="fill:none;stroke:#000000;stroke-width:0.8115707px;stroke-linecap:butt;stroke-linejoin:miter;stroke-opacity:1"
         d="m 264.64315,288.41401 c 2.00136,-10.75821 15.70524,4.60205 14.28644,-4.01374"
         id="path3955-7-1"
         inkscape:connector-curvature="0"
         sodipodi:nodetypes="cc"
         transform="matrix(0.68380878,-0.72966125,0.72966125,0.68380878,-147.4764,336.6133)" />
      <path
         inkscape:export-ydpi="300"
         inkscape:export-xdpi="300"
         inkscape:export-filename="D:\Temp\genometricorr3.png"
         style="fill:#ffffff;stroke:#000000;stroke-width:0.8115707;stroke-linecap:butt;stroke-linejoin:miter;stroke-miterlimit:4;stroke-opacity:1;stroke-dasharray:none"
         d="m 281.64473,283.95007 c -2.16776,1.79541 2.70657,2.27421 2.24606,3.46047 -2.26078,1.14271 -5.66537,1.0696 -6.46865,-3.54929 -0.80327,-4.61888 6.39034,-1.70662 4.22259,0.0888 z"
         id="path3941-7-2-6-4"
         inkscape:connector-curvature="0"
         sodipodi:nodetypes="zczz"
         inkscape:transform-center-y="-1.1081724"
         inkscape:transform-center-x="5.2819223"
         transform="matrix(0.68380878,-0.72966125,0.72966125,0.68380878,-147.4764,336.6133)" />
      <path
         inkscape:export-ydpi="300"
         inkscape:export-xdpi="300"
         inkscape:export-filename="D:\Temp\genometricorr3.png"
         style="fill:none;stroke:#000000;stroke-width:0.8115707px;stroke-linecap:butt;stroke-linejoin:miter;stroke-opacity:1"
         d="m 339.06559,378.21501 c -5.9491,-2.68327 -3.81338,-15.69411 -11.19335,-16.31871 -6.10407,0.33723 -5.27389,-11.47034 -6.57704,-8.29336"
         id="path4432"
         inkscape:connector-curvature="0"
         sodipodi:nodetypes="ccc"
         transform="matrix(0.68380878,-0.72966125,0.72966125,0.68380878,-147.4764,336.6133)" />
      <path
         inkscape:export-ydpi="300"
         inkscape:export-xdpi="300"
         inkscape:export-filename="D:\Temp\genometricorr3.png"
         sodipodi:type="arc"
         style="fill:#000000;fill-opacity:1;fill-rule:nonzero;stroke:none"
         id="path3066-4-7"
         sodipodi:cx="320.625"
         sodipodi:cy="108.61218"
         sodipodi:rx="1.5178572"
         sodipodi:ry="1.4285715"
         d="m 322.14286,108.61218 c 0,0.78898 -0.67957,1.42857 -1.51786,1.42857 -0.83829,0 -1.51786,-0.63959 -1.51786,-1.42857 0,-0.78898 0.67957,-1.42857 1.51786,-1.42857 0.83829,0 1.51786,0.63959 1.51786,1.42857 z"
         transform="matrix(0.89258442,-0.45088029,0.45088029,0.89258442,-15.50226,327.71045)" />
      <path
         inkscape:export-ydpi="300"
         inkscape:export-xdpi="300"
         inkscape:export-filename="D:\Temp\genometricorr3.png"
         sodipodi:type="arc"
         style="fill:#000000;fill-opacity:1;fill-rule:nonzero;stroke:none"
         id="path3066-4-7-1"
         sodipodi:cx="320.625"
         sodipodi:cy="108.61218"
         sodipodi:rx="1.5178572"
         sodipodi:ry="1.4285715"
         d="m 322.14286,108.61218 c 0,0.78898 -0.67957,1.42857 -1.51786,1.42857 -0.83829,0 -1.51786,-0.63959 -1.51786,-1.42857 0,-0.78898 0.67957,-1.42857 1.51786,-1.42857 0.83829,0 1.51786,0.63959 1.51786,1.42857 z"
         transform="matrix(0.89258442,-0.45088029,0.45088029,0.89258442,-38.516014,350.43939)" />
      <path
         inkscape:export-ydpi="300"
         inkscape:export-xdpi="300"
         inkscape:export-filename="D:\Temp\genometricorr3.png"
         sodipodi:type="arc"
         style="fill:#000000;fill-opacity:1;fill-rule:nonzero;stroke:none"
         id="path3066-4-7-8"
         sodipodi:cx="320.625"
         sodipodi:cy="108.61218"
         sodipodi:rx="1.5178572"
         sodipodi:ry="1.4285715"
         d="m 322.14286,108.61218 c 0,0.78898 -0.67957,1.42857 -1.51786,1.42857 -0.83829,0 -1.51786,-0.63959 -1.51786,-1.42857 0,-0.78898 0.67957,-1.42857 1.51786,-1.42857 0.83829,0 1.51786,0.63959 1.51786,1.42857 z"
         transform="matrix(0.89258442,-0.45088029,0.45088029,0.89258442,-36.008337,349.85269)" />
      <path
         inkscape:export-ydpi="300"
         inkscape:export-xdpi="300"
         inkscape:export-filename="D:\Temp\genometricorr3.png"
         style="fill:#ffffff;stroke:#000000;stroke-width:0.8115707;stroke-linecap:butt;stroke-linejoin:miter;stroke-miterlimit:4;stroke-opacity:1;stroke-dasharray:none"
         d="m 279.37177,293.38058 c -2.16776,1.79541 2.70657,2.27421 2.24606,3.46047 -2.26078,1.14271 -5.66537,1.0696 -6.46865,-3.54929 -0.80327,-4.61888 6.39034,-1.70662 4.22259,0.0888 z"
         id="path3941-7-2-6-4-7"
         inkscape:connector-curvature="0"
         sodipodi:nodetypes="zczz"
         inkscape:transform-center-y="-4.3363276"
         inkscape:transform-center-x="2.7437647"
         transform="matrix(0.68380878,-0.72966125,0.72966125,0.68380878,-147.4764,336.6133)" />
      <g
         inkscape:export-ydpi="300"
         inkscape:export-xdpi="300"
         inkscape:export-filename="D:\Temp\genometricorr3.png"
         transform="matrix(0.68380878,-0.72966125,0.72966125,0.68380878,-144.44594,336.10822)"
         id="g4056">
        <rect
           style="color:#000000;fill:#ffffff;fill-opacity:1;fill-rule:nonzero;stroke:#000000;stroke-width:0.40578535;stroke-linecap:butt;stroke-linejoin:round;stroke-miterlimit:4;stroke-opacity:1;stroke-dasharray:none;stroke-dashoffset:0;marker:none;visibility:visible;display:inline;overflow:visible;enable-background:accumulate"
           id="rect3199"
           width="58.115017"
           height="3.5355339"
           x="413.36139"
           y="2.4963443"
           transform="matrix(0.68380879,0.72966125,-0.72966125,0.68380878,0,0)" />
        <path
           style="fill:none;stroke:#000000;stroke-width:0.60867804;stroke-linecap:butt;stroke-linejoin:miter;stroke-miterlimit:4;stroke-opacity:1;stroke-dasharray:none"
           d="m 270,339.36218 0,2"
           id="path3973"
           inkscape:connector-curvature="0"
           transform="matrix(0.68380879,0.72966126,-0.72966126,0.68380879,346.45934,-122.57132)" />
        <path
           style="fill:none;stroke:#000000;stroke-width:0.60867804;stroke-linecap:butt;stroke-linejoin:miter;stroke-miterlimit:4;stroke-opacity:1;stroke-dasharray:none"
           d="m 280,339.36218 0,2"
           id="path3977"
           inkscape:connector-curvature="0"
           transform="matrix(0.68380879,0.72966126,-0.72966126,0.68380879,346.45934,-122.57132)" />
        <path
           style="fill:none;stroke:#000000;stroke-width:0.60867804;stroke-linecap:butt;stroke-linejoin:miter;stroke-miterlimit:4;stroke-opacity:1;stroke-dasharray:none"
           d="m 290,339.36218 0,2"
           id="path3981"
           inkscape:connector-curvature="0"
           transform="matrix(0.68380879,0.72966126,-0.72966126,0.68380879,346.45934,-122.57132)" />
        <path
           style="fill:none;stroke:#000000;stroke-width:0.40578535;stroke-linecap:butt;stroke-linejoin:miter;stroke-miterlimit:4;stroke-opacity:1;stroke-dasharray:none"
           d="m 284.8359,307.95539 -0.72967,0.68381"
           id="path3983"
           inkscape:connector-curvature="0" />
        <path
           style="fill:none;stroke:#000000;stroke-width:0.40578535;stroke-linecap:butt;stroke-linejoin:miter;stroke-miterlimit:4;stroke-opacity:1;stroke-dasharray:none"
           d="m 286.20351,309.41471 -0.72966,0.68381"
           id="path3985"
           inkscape:connector-curvature="0" />
        <path
           style="fill:none;stroke:#000000;stroke-width:0.40578535;stroke-linecap:butt;stroke-linejoin:miter;stroke-miterlimit:4;stroke-opacity:1;stroke-dasharray:none"
           d="m 287.57113,310.87403 -0.72966,0.68381"
           id="path3987"
           inkscape:connector-curvature="0" />
        <path
           style="fill:none;stroke:#000000;stroke-width:0.40578535;stroke-linecap:butt;stroke-linejoin:miter;stroke-miterlimit:4;stroke-opacity:1;stroke-dasharray:none"
           d="m 288.93875,312.33336 -0.72966,0.6838"
           id="path3989"
           inkscape:connector-curvature="0" />
        <path
           style="fill:none;stroke:#000000;stroke-width:0.40578535;stroke-linecap:butt;stroke-linejoin:miter;stroke-miterlimit:4;stroke-opacity:1;stroke-dasharray:none"
           d="m 291.67399,315.252 -0.72967,0.68381"
           id="path3983-4"
           inkscape:connector-curvature="0" />
        <path
           style="fill:none;stroke:#000000;stroke-width:0.40578535;stroke-linecap:butt;stroke-linejoin:miter;stroke-miterlimit:4;stroke-opacity:1;stroke-dasharray:none"
           d="m 293.0416,316.71132 -0.72966,0.68381"
           id="path3985-0"
           inkscape:connector-curvature="0" />
        <path
           style="fill:none;stroke:#000000;stroke-width:0.40578535;stroke-linecap:butt;stroke-linejoin:miter;stroke-miterlimit:4;stroke-opacity:1;stroke-dasharray:none"
           d="m 294.40922,318.17064 -0.72966,0.68381"
           id="path3987-9"
           inkscape:connector-curvature="0" />
        <path
           style="fill:none;stroke:#000000;stroke-width:0.40578535;stroke-linecap:butt;stroke-linejoin:miter;stroke-miterlimit:4;stroke-opacity:1;stroke-dasharray:none"
           d="m 295.77684,319.62997 -0.72966,0.6838"
           id="path3989-4"
           inkscape:connector-curvature="0" />
        <path
           inkscape:connector-curvature="0"
           id="path4020"
           d="m 282.10066,305.03674 -0.72966,0.68381"
           style="fill:none;stroke:#000000;stroke-width:0.40578535;stroke-linecap:butt;stroke-linejoin:miter;stroke-miterlimit:4;stroke-opacity:1;stroke-dasharray:none" />
        <path
           inkscape:connector-curvature="0"
           id="path4022"
           d="m 303.98254,328.3859 -1.45932,1.36762"
           style="fill:none;stroke:#000000;stroke-width:0.60867804;stroke-linecap:butt;stroke-linejoin:miter;stroke-miterlimit:4;stroke-opacity:1;stroke-dasharray:none" />
        <path
           inkscape:connector-curvature="0"
           id="path4024"
           d="m 310.82063,335.68252 -1.45932,1.36761"
           style="fill:none;stroke:#000000;stroke-width:0.60867804;stroke-linecap:butt;stroke-linejoin:miter;stroke-miterlimit:4;stroke-opacity:1;stroke-dasharray:none" />
        <path
           inkscape:connector-curvature="0"
           id="path4026"
           d="m 298.51208,322.54862 -0.72967,0.68381"
           style="fill:none;stroke:#000000;stroke-width:0.40578535;stroke-linecap:butt;stroke-linejoin:miter;stroke-miterlimit:4;stroke-opacity:1;stroke-dasharray:none" />
        <path
           inkscape:connector-curvature="0"
           id="path4028"
           d="m 299.87969,324.00794 -0.72966,0.68381"
           style="fill:none;stroke:#000000;stroke-width:0.40578535;stroke-linecap:butt;stroke-linejoin:miter;stroke-miterlimit:4;stroke-opacity:1;stroke-dasharray:none" />
        <path
           inkscape:connector-curvature="0"
           id="path4030"
           d="m 301.24731,325.46726 -0.72966,0.68381"
           style="fill:none;stroke:#000000;stroke-width:0.40578535;stroke-linecap:butt;stroke-linejoin:miter;stroke-miterlimit:4;stroke-opacity:1;stroke-dasharray:none" />
        <path
           inkscape:connector-curvature="0"
           id="path4032"
           d="m 302.61493,326.92659 -0.72966,0.6838"
           style="fill:none;stroke:#000000;stroke-width:0.40578535;stroke-linecap:butt;stroke-linejoin:miter;stroke-miterlimit:4;stroke-opacity:1;stroke-dasharray:none" />
        <path
           inkscape:connector-curvature="0"
           id="path4034"
           d="m 305.35017,329.84523 -0.72967,0.68381"
           style="fill:none;stroke:#000000;stroke-width:0.40578535;stroke-linecap:butt;stroke-linejoin:miter;stroke-miterlimit:4;stroke-opacity:1;stroke-dasharray:none" />
        <path
           inkscape:connector-curvature="0"
           id="path4036"
           d="m 306.71778,331.30455 -0.72966,0.68381"
           style="fill:none;stroke:#000000;stroke-width:0.40578535;stroke-linecap:butt;stroke-linejoin:miter;stroke-miterlimit:4;stroke-opacity:1;stroke-dasharray:none" />
        <path
           inkscape:connector-curvature="0"
           id="path4038"
           d="m 308.0854,332.76387 -0.72966,0.68381"
           style="fill:none;stroke:#000000;stroke-width:0.40578535;stroke-linecap:butt;stroke-linejoin:miter;stroke-miterlimit:4;stroke-opacity:1;stroke-dasharray:none" />
        <path
           inkscape:connector-curvature="0"
           id="path4040"
           d="m 309.45302,334.2232 -0.72966,0.6838"
           style="fill:none;stroke:#000000;stroke-width:0.40578535;stroke-linecap:butt;stroke-linejoin:miter;stroke-miterlimit:4;stroke-opacity:1;stroke-dasharray:none" />
        <path
           style="fill:none;stroke:#000000;stroke-width:0.60867804;stroke-linecap:butt;stroke-linejoin:miter;stroke-miterlimit:4;stroke-opacity:1;stroke-dasharray:none"
           d="m 317.65872,342.97914 -1.45932,1.36761"
           id="path4042"
           inkscape:connector-curvature="0" />
        <path
           style="fill:none;stroke:#000000;stroke-width:0.40578535;stroke-linecap:butt;stroke-linejoin:miter;stroke-miterlimit:4;stroke-opacity:1;stroke-dasharray:none"
           d="m 312.18826,337.14185 -0.72967,0.68381"
           id="path4044"
           inkscape:connector-curvature="0" />
        <path
           style="fill:none;stroke:#000000;stroke-width:0.40578535;stroke-linecap:butt;stroke-linejoin:miter;stroke-miterlimit:4;stroke-opacity:1;stroke-dasharray:none"
           d="m 313.55587,338.60117 -0.72966,0.68381"
           id="path4046"
           inkscape:connector-curvature="0" />
        <path
           style="fill:none;stroke:#000000;stroke-width:0.40578535;stroke-linecap:butt;stroke-linejoin:miter;stroke-miterlimit:4;stroke-opacity:1;stroke-dasharray:none"
           d="m 314.92349,340.06049 -0.72966,0.68381"
           id="path4048"
           inkscape:connector-curvature="0" />
        <path
           style="fill:none;stroke:#000000;stroke-width:0.40578535;stroke-linecap:butt;stroke-linejoin:miter;stroke-miterlimit:4;stroke-opacity:1;stroke-dasharray:none"
           d="m 316.29111,341.51982 -0.72966,0.6838"
           id="path4050"
           inkscape:connector-curvature="0" />
        <path
           inkscape:connector-curvature="0"
           id="path4052"
           d="m 319.02633,344.43845 -0.72966,0.68381"
           style="fill:none;stroke:#000000;stroke-width:0.40578535;stroke-linecap:butt;stroke-linejoin:miter;stroke-miterlimit:4;stroke-opacity:1;stroke-dasharray:none" />
      </g>
      <path
         inkscape:export-ydpi="300"
         inkscape:export-xdpi="300"
         inkscape:export-filename="D:\Temp\genometricorr3.png"
         inkscape:transform-center-x="-2.6661072"
         style="fill:#ffffff;stroke:#000000;stroke-width:0.8115707;stroke-linecap:butt;stroke-linejoin:miter;stroke-miterlimit:4;stroke-opacity:1;stroke-dasharray:none"
         d="m 279.78895,309.46433 c -2.49814,-1.29692 2.16502,-2.79469 1.46429,-3.85687 -2.45116,-0.6393 -5.76347,0.15143 -5.57281,4.83576 0.19066,4.68434 6.60665,0.31805 4.10852,-0.97889 z"
         id="path3941-7"
         inkscape:connector-curvature="0"
         sodipodi:nodetypes="zczz"
         inkscape:transform-center-y="4.3848345"
         transform="matrix(0.68380878,-0.72966125,0.72966125,0.68380878,-147.4764,336.6133)" />
      <path
         inkscape:export-ydpi="300"
         inkscape:export-xdpi="300"
         inkscape:export-filename="D:\Temp\genometricorr3.png"
         inkscape:transform-center-x="-1.4400261"
         style="fill:#ffffff;stroke:#000000;stroke-width:0.8115707;stroke-linecap:butt;stroke-linejoin:miter;stroke-miterlimit:4;stroke-opacity:1;stroke-dasharray:none"
         d="m 321.20416,348.96795 c 1.13228,2.57694 2.92913,-1.97934 3.94366,-1.21125 0.47909,2.48744 -0.52465,5.74154 -5.18677,5.24769 -4.66214,-0.49386 0.1108,-6.61338 1.24311,-4.03644 z"
         id="path3941-7-8"
         inkscape:connector-curvature="0"
         sodipodi:nodetypes="zczz"
         inkscape:transform-center-y="4.6282028"
         transform="matrix(0.68380878,-0.72966125,0.72966125,0.68380878,-147.4764,336.6133)" />
      <path
         inkscape:export-ydpi="300"
         inkscape:export-xdpi="300"
         inkscape:export-filename="D:\Temp\genometricorr3.png"
         sodipodi:nodetypes="cc"
         inkscape:connector-curvature="0"
         id="path4294-2"
         d="m 254.72293,324.86206 c 0,0 89.59645,0 80,0"
         style="fill:none;stroke:#000000;stroke-width:0.40578535;stroke-linecap:butt;stroke-linejoin:miter;stroke-miterlimit:4;stroke-opacity:1;stroke-dasharray:none" />
      <path
         inkscape:export-ydpi="300"
         inkscape:export-xdpi="300"
         inkscape:export-filename="D:\Temp\genometricorr3.png"
         sodipodi:nodetypes="zccz"
         inkscape:connector-curvature="0"
         id="path3947"
         d="m 307.64454,326.53782 c 5.70142,0.81821 13.2319,-4.06288 4.44924,-3.26139 -3.06422,1.16031 -6.21966,-0.13173 -8.02694,-0.18214 -5.0166,-4.00931 -2.12372,2.62531 3.5777,3.44353 z"
         style="fill:#0000ff;stroke:#0101ff;stroke-width:0.8115707px;stroke-linecap:butt;stroke-linejoin:miter;stroke-opacity:1" />
      <path
         inkscape:export-ydpi="300"
         inkscape:export-xdpi="300"
         inkscape:export-filename="D:\Temp\genometricorr3.png"
         sodipodi:nodetypes="ccc"
         inkscape:connector-curvature="0"
         id="path3949"
         d="m 280.6317,335.67876 c 2.27685,0.3406 13.15794,-1.72979 1.46434,-2.98802 -5.57257,-1.58875 -7.20155,3.71978 -1.46434,2.98802 z"
         style="fill:#008000;stroke:#008000;stroke-width:0.8115707px;stroke-linecap:butt;stroke-linejoin:miter;stroke-opacity:1" />
      <path
         inkscape:export-ydpi="300"
         inkscape:export-xdpi="300"
         inkscape:export-filename="D:\Temp\genometricorr3.png"
         sodipodi:nodetypes="ccc"
         inkscape:connector-curvature="0"
         id="path3949-1"
         d="m 296.91037,335.81432 c 2.27685,0.3406 13.15795,-1.72979 1.46433,-2.98802 -5.57256,-1.58875 -7.20154,3.71978 -1.46433,2.98802 z"
         style="fill:#008000;stroke:#008000;stroke-width:0.8115707px;stroke-linecap:butt;stroke-linejoin:miter;stroke-opacity:1" />
      <path
         inkscape:export-ydpi="300"
         inkscape:export-xdpi="300"
         inkscape:export-filename="D:\Temp\genometricorr3.png"
         sodipodi:nodetypes="ccc"
         inkscape:connector-curvature="0"
         id="path3949-15"
         d="m 311.81011,335.81432 c 2.27686,0.3406 13.15795,-1.72979 1.46434,-2.98802 -5.57257,-1.58875 -7.20154,3.71978 -1.46434,2.98802 z"
         style="fill:#008000;stroke:#008000;stroke-width:0.8115707px;stroke-linecap:butt;stroke-linejoin:miter;stroke-opacity:1" />
      <path
         inkscape:export-ydpi="300"
         inkscape:export-xdpi="300"
         inkscape:export-filename="D:\Temp\genometricorr3.png"
         sodipodi:nodetypes="zccz"
         inkscape:connector-curvature="0"
         id="path3947-2"
         d="m 282.45722,326.92364 c 5.70141,0.81821 13.2319,-4.06288 4.44923,-3.26139 -3.06421,1.16031 -6.21965,-0.13173 -8.02694,-0.18214 -5.0166,-4.00931 -2.12372,2.62531 3.5777,3.44353 z"
         style="fill:#0000ff;stroke:#0101ff;stroke-width:0.8115707px;stroke-linecap:butt;stroke-linejoin:miter;stroke-opacity:1" />
      <path
         inkscape:export-ydpi="300"
         inkscape:export-xdpi="300"
         inkscape:export-filename="D:\Temp\genometricorr3.png"
         sodipodi:nodetypes="zccz"
         inkscape:connector-curvature="0"
         id="path3947-3"
         d="m 263.76938,326.41856 c 5.70142,0.81821 13.2319,-4.06288 4.44924,-3.26139 -3.06422,1.16031 -6.21966,-0.13173 -8.02694,-0.18214 -5.0166,-4.00931 -2.12372,2.62531 3.5777,3.44353 z"
         style="fill:#0000ff;stroke:#0101ff;stroke-width:0.8115707px;stroke-linecap:butt;stroke-linejoin:miter;stroke-opacity:1" />
    </g>
  </g>
</svg>
