<?xml version="1.0" encoding="UTF-8" standalone="no"?>
<!-- Created with Inkscape (http://www.inkscape.org/) -->

<svg
   xmlns:dc="http://purl.org/dc/elements/1.1/"
   xmlns:cc="http://creativecommons.org/ns#"
   xmlns:rdf="http://www.w3.org/1999/02/22-rdf-syntax-ns#"
   xmlns:svg="http://www.w3.org/2000/svg"
   xmlns="http://www.w3.org/2000/svg"
   xmlns:sodipodi="http://sodipodi.sourceforge.net/DTD/sodipodi-0.dtd"
   xmlns:inkscape="http://www.inkscape.org/namespaces/inkscape"
   width="1052.3622"
   height="744.09448"
   id="svg6941"
   version="1.1"
   inkscape:version="0.48.2 r9819"
   sodipodi:docname="hocomoco_logo.svg"
   inkscape:export-filename="D:\Temp\autosome\autosome\hocomoco_logo.png"
   inkscape:export-xdpi="299.20001"
   inkscape:export-ydpi="299.20001">
  <defs
     id="defs6943" />
  <sodipodi:namedview
     id="base"
     pagecolor="#ffffff"
     bordercolor="#666666"
     borderopacity="1.0"
     inkscape:pageopacity="0.0"
     inkscape:pageshadow="2"
     inkscape:zoom="0.35"
     inkscape:cx="375"
     inkscape:cy="520"
     inkscape:document-units="px"
     inkscape:current-layer="layer1"
     showgrid="false"
     inkscape:window-width="1366"
     inkscape:window-height="746"
     inkscape:window-x="-8"
     inkscape:window-y="-8"
     inkscape:window-maximized="1" />
  <metadata
     id="metadata6946">
    <rdf:RDF>
      <cc:Work
         rdf:about="">
        <dc:format>image/svg+xml</dc:format>
        <dc:type
           rdf:resource="http://purl.org/dc/dcmitype/StillImage" />
        <dc:title></dc:title>
      </cc:Work>
    </rdf:RDF>
  </metadata>
  <g
     inkscape:label="Layer 1"
     inkscape:groupmode="layer"
     id="layer1"
     transform="translate(0,-308.2677)">
    <g
       style="display:inherit"
       transform="matrix(3.4166662,0,0,3.4166662,-787.27679,-531.55196)"
       id="g5729_0">
      <path
         sodipodi:nodetypes="zczzzzzazcczzzzzzzzzaczzzzzz"
         inkscape:connector-curvature="0"
         id="path3331_0"
         d="m 276.43112,343.41689 c -4.99725,4.16238 -19.80146,6.82148 -19.44444,15.55555 5.06451,2.13294 14.72911,4.1401 12.77778,12.22223 -1.95133,8.08213 -11.68277,17.17858 -15.55556,20.55555 -3.87279,3.37697 16.19662,5.75409 18.33333,13.88889 2.13671,8.1348 -4.97422,15.2807 0,20 4.97421,4.7193 15.75174,-4.15585 21.11111,-1.11111 5.35937,3.04474 6.80343,7.16433 9.75278,11.11299 4.45439,5.96364 2.91534,20.58359 11.91389,18.88701 8.99855,-1.69658 18.13356,-14.95851 28.28599,-8.58247 5.98906,4.84546 12.40483,13.43115 21.16814,10.00245 11.8779,-4.25657 21.92525,-15.66957 28.84847,-23.11983 6.92322,-7.45026 14.2475,-9.98762 19.47518,-2.74459 5.22768,7.24303 12.83139,2.96867 16.27138,-4.35303 3.43999,-7.3217 5.14549,-15.90503 6.5064,-24.53586 1.36091,-8.63083 5.75456,-16.77299 15.55555,-18.88889 9.80099,-2.1159 4.35779,-15.70891 0.28098,-20.93952 -4.07681,-5.23061 -9.71757,-8.79325 -13.05876,-12.39382 -3.34119,-3.60057 -12.91904,-4.16834 -6.11111,-8.88888 6.80793,-4.72054 1.6439,-16.6825 -3.14211,-21.47546 -4.78601,-4.79296 -11.74051,-7.95473 -18.52455,-9.0801 -8.65605,-1.43591 -23.17081,4.5751 -26.11111,3.33333 -4.63076,-2.29538 -11.16039,-7.19269 -18.28303,-8.43438 -7.12264,-1.24169 -16.80821,0.10363 -21.71697,3.98994 -4.90876,3.88631 -4.57929,7.20791 -10.50263,10.30421 -5.92334,3.0963 -14.20906,-6.20587 -22.82792,-5.89905 -8.61886,0.30682 -23.47221,4.8143 -23.07798,14.76011 0.39423,9.94581 -6.92756,11.67235 -11.92481,15.83473 z"
         style="fill:none;stroke:#000000;stroke-width:2.42464375px;stroke-linecap:butt;stroke-linejoin:miter;stroke-opacity:1" />
      <path
         sodipodi:nodetypes="caac"
         inkscape:connector-curvature="0"
         id="path3335_0"
         d="m 305.87557,357.86133 c 3.64925,1.91897 7.33761,4.6674 11.50511,5.51615 2.32298,0.4731 4.84535,0.39609 7.10473,-0.32173 2.79557,-0.88818 5.12704,-3.88707 7.40861,-4.74861"
         style="fill:none;stroke:#000000;stroke-width:2.42464375px;stroke-linecap:butt;stroke-linejoin:miter;stroke-opacity:1" />
      <path
         sodipodi:nodetypes="ccc"
         inkscape:connector-curvature="0"
         id="path3337_0"
         d="m 312.54223,360.63911 c 1.46899,-3.05504 3.22308,-6.36403 6.71866,-6.62688 4.31282,0.0391 6.24096,3.09454 8.97688,5.79514"
         style="fill:none;stroke:#000000;stroke-width:2.42464375px;stroke-linecap:butt;stroke-linejoin:miter;stroke-opacity:1" />
      <path
         sodipodi:nodetypes="cazczcc"
         inkscape:connector-curvature="0"
         id="path3339_0"
         d="m 350.32001,351.75022 c 0.41627,-2.71088 2.8147,-4.8976 5.23393,-5.97142 3.66573,-1.6271 6.713,-2.72201 12.03036,0.1881 5.31736,2.91011 12.05899,10.10661 18.78366,13.86024 3.59352,1.9561 11.14417,2.98812 15.5312,1.37815 4.38703,-1.60997 7.11346,-3.23547 10.4358,-5.25189 0.82905,-0.51884 0.59522,-1.09977 -0.34828,-0.86986"
         style="fill:none;stroke:#000000;stroke-width:2.42464375px;stroke-linecap:butt;stroke-linejoin:miter;stroke-opacity:1" />
      <path
         sodipodi:nodetypes="czaac"
         inkscape:connector-curvature="0"
         id="path3341_0"
         d="m 359.76446,346.75022 c -2.28035,3.92298 -3.454,7.73051 -1.68752,13.12126 1.76648,5.39075 6.44692,11.37804 12.14574,13.13041 6.10551,1.87743 13.58117,-0.46266 18.66833,-4.32567 1.37971,-1.0477 2.40821,-2.82478 2.48967,-4.56213"
         style="fill:none;stroke:#000000;stroke-width:2.42464375px;stroke-linecap:butt;stroke-linejoin:miter;stroke-opacity:1" />
      <path
         sodipodi:nodetypes="azzzaa"
         inkscape:connector-curvature="0"
         id="path3343_0"
         d="m 363.20312,364.7414 c -0.61565,-0.92591 -2.66621,-1.45903 -1.72504,-2.85504 0.94117,-1.39601 5.20576,0.0789 6.6807,1.07193 1.47494,0.99299 2.16372,1.51918 1.62942,3.04199 -0.5343,1.52281 -2.39605,2.7177 -3.89835,2.42554 -1.49204,-0.29016 -1.84513,-2.41868 -2.68673,-3.68442 z"
         style="fill:none;stroke:#000000;stroke-width:2.42464375px;stroke-linecap:butt;stroke-linejoin:miter;stroke-opacity:1" />
      <path
         sodipodi:nodetypes="cc"
         inkscape:connector-curvature="0"
         id="path3347_0"
         d="m 341.34358,377.53585 c 2.87871,2.29238 5.31097,4.48029 7.10064,5.77254"
         style="fill:none;stroke:#000000;stroke-width:2.42464375px;stroke-linecap:butt;stroke-linejoin:miter;stroke-opacity:1" />
      <path
         sodipodi:nodetypes="czzzc"
         inkscape:connector-curvature="0"
         id="path3349_0"
         d="m 337.54223,376.75022 c -0.002,1.69008 -0.18269,3.49402 -0.003,5.07025 0.17969,1.57623 1.04119,2.691 2.02431,3.10105 0.98312,0.41005 2.19078,0.20157 3.27152,-0.3865 1.08074,-0.58807 2.81085,-1.42989 3.59644,-2.22922"
         style="fill:none;stroke:#000000;stroke-width:2.42464375px;stroke-linecap:butt;stroke-linejoin:miter;stroke-opacity:1" />
      <path
         sodipodi:nodetypes="czzaaaaaaaccc"
         inkscape:connector-curvature="0"
         id="path3351_0"
         d="m 312.54223,403.41689 c 3.42512,1.26464 6.5592,3.77049 9.29973,5.21007 2.74053,1.43958 4.20468,2.01415 6.71152,3.07594 2.50684,1.06179 5.5767,1.70846 8.4332,2.26954 2.91467,0.57251 5.87186,1.04807 8.84156,1.11112 2.24514,0.0477 4.48736,-0.26395 6.71399,-0.55556 3.29551,-0.43159 6.63391,-0.79682 9.81362,-1.76434 2.94223,-0.89526 5.83374,-2.08698 8.45099,-3.70197 2.38199,-1.46983 4.64001,-3.23767 6.46078,-5.36348 1.75579,-2.04994 2.97973,-4.52035 4.15325,-6.95097 0.68804,-1.42509 1.12257,-2.95924 1.67692,-4.44146 1.60523,-5.36379 1.85975,-5.44935 3.61111,-10.27778 0.45594,-2.20686 0.47603,-2.15495 -1.609,-1.03729"
         style="fill:none;stroke:#000000;stroke-width:2.42464375px;stroke-linecap:butt;stroke-linejoin:miter;stroke-opacity:1" />
      <path
         sodipodi:nodetypes="czczcczazczzzcczzzc"
         inkscape:connector-curvature="0"
         id="path3353_0"
         d="m 314.76446,411.19467 c 4.0689,0.34022 3.4484,-3.23162 4.44444,-6.11111 0.99604,-2.87949 3.9317,-2.86434 5.53744,-1.90742 3.58368,2.72961 5.30031,11.95848 6.94265,13.88309 1.64234,1.92461 2.15944,-3.81415 2.62654,-4.83132 0.13089,-1.13465 -0.3301,-6.28712 1.98632,-7.19638 5.24432,1.69373 11.83362,19.64869 13.55954,14.36597 1.72592,-5.28272 -0.64742,-9.73421 2.92986,-10.98816 2.18971,-0.76757 3.71334,2.5061 5.60031,4.13428 1.88697,1.62818 4.71209,6.81142 5.41401,5.41467 -0.20484,-2.59286 -0.28593,-9.45635 0.38514,-11.2156 0.67107,-1.75925 3.05812,-2.47434 5.00377,-1.86628 1.94565,0.60806 3.50903,1.44285 5.01442,2.42937 1.50539,0.98652 4.65821,1.82352 4.76614,-0.26741 0.40189,-3.83311 -2.47157,-6.33131 -2.54392,-9.73259 0.84808,-2.21958 4.02841,-0.36439 6.42586,-0.55304 2.39745,-0.18865 2.21146,-2.06845 1.62971,-4.16918 -0.58175,-2.10073 -4.66518,-6.60156 -2.40679,-7.63423 2.25839,-1.03267 7.26258,-0.35076 9.35122,0.68978"
         style="fill:none;stroke:#000000;stroke-width:2.42464375px;stroke-linecap:butt;stroke-linejoin:miter;stroke-opacity:1" />
      <path
         sodipodi:nodetypes="caaac"
         inkscape:connector-curvature="0"
         id="path3387_0"
         d="m 443.63101,342.88366 c 6.55292,-5.14446 13.26692,-8.14468 19.9745,-12.09288 5.50909,-3.24275 11.03719,-6.45667 16.64649,-9.52283 5.17094,-2.82654 10.35197,-5.64729 15.67422,-8.17742 3.9969,-1.90007 8.21232,-3.78835 12.19389,-5.25153"
         style="fill:none;stroke:#000000;stroke-width:2.31636px;stroke-linecap:butt;stroke-linejoin:miter;stroke-opacity:1" />
      <path
         sodipodi:nodetypes="cac"
         inkscape:connector-curvature="0"
         id="path3389_0"
         d="m 426.43112,307.86134 c 10.24886,-7.37653 21.05404,-15.15448 31.11111,-23.33334 5.98553,-4.8677 14.12796,-12.05514 17.36953,-15.29671"
         style="fill:none;stroke:#000000;stroke-width:2.42464375px;stroke-linecap:butt;stroke-linejoin:miter;stroke-opacity:1" />
      <path
         sodipodi:nodetypes="cac"
         inkscape:connector-curvature="0"
         id="path3391_0"
         d="m 376.98667,297.30578 c 12.35493,-4.09974 20.21266,-13.57159 29.52172,-21.37966 8.26579,-6.93302 17.85761,-20.83033 23.25606,-22.50923"
         style="fill:none;stroke:#000000;stroke-width:2.42464375px;stroke-linecap:butt;stroke-linejoin:miter;stroke-opacity:1" />
      <path
         sodipodi:nodetypes="cac"
         inkscape:connector-curvature="0"
         id="path3397_0"
         d="m 450.32002,398.97244 c 6.47439,-7.48453 18.21566,-13.9669 28.59169,-18.62793 11.82722,-5.31293 23.31036,-7.93478 37.51942,-10.26096"
         style="fill:none;stroke:#000000;stroke-width:2.42464375px;stroke-linecap:butt;stroke-linejoin:miter;stroke-opacity:1" />
      <path
         sodipodi:nodetypes="azzzaa"
         inkscape:connector-curvature="0"
         id="path3343-9_0"
         d="m 322.34908,362.70545 c -0.61565,-0.92591 -2.66621,-1.45903 -1.72504,-2.85504 0.94117,-1.39601 5.20576,0.0789 6.6807,1.07193 1.47494,0.99299 2.16372,1.51918 1.62942,3.04199 -0.5343,1.52281 -2.39605,2.7177 -3.89835,2.42554 -1.49204,-0.29016 -1.84513,-2.41868 -2.68673,-3.68442 z"
         style="fill:none;stroke:#000000;stroke-width:2.42464375px;stroke-linecap:butt;stroke-linejoin:miter;stroke-opacity:1" />
    </g>
  </g>
</svg>
