<?xml version="1.0" encoding="UTF-8" standalone="no"?>
<!-- Created with Inkscape (http://www.inkscape.org/) -->

<svg
   xmlns:dc="http://purl.org/dc/elements/1.1/"
   xmlns:cc="http://creativecommons.org/ns#"
   xmlns:rdf="http://www.w3.org/1999/02/22-rdf-syntax-ns#"
   xmlns:svg="http://www.w3.org/2000/svg"
   xmlns="http://www.w3.org/2000/svg"
   xmlns:sodipodi="http://sodipodi.sourceforge.net/DTD/sodipodi-0.dtd"
   xmlns:inkscape="http://www.inkscape.org/namespaces/inkscape"
   width="1052.3622"
   height="744.09448"
   id="svg3467"
   version="1.1"
   inkscape:version="0.48.2 r9819"
   inkscape:export-filename="D:\Gbx\autosome\autosome\sesimcmc_64.png"
   inkscape:export-xdpi="20.25"
   inkscape:export-ydpi="20.25"
   sodipodi:docname="New document 4">
  <defs
     id="defs3469" />
  <sodipodi:namedview
     id="base"
     pagecolor="#ffffff"
     bordercolor="#666666"
     borderopacity="1.0"
     inkscape:pageopacity="0.0"
     inkscape:pageshadow="2"
     inkscape:zoom="0.49497475"
     inkscape:cx="536.4552"
     inkscape:cy="444.53454"
     inkscape:document-units="px"
     inkscape:current-layer="layer1"
     showgrid="false"
     inkscape:window-width="1366"
     inkscape:window-height="746"
     inkscape:window-x="-8"
     inkscape:window-y="-8"
     inkscape:window-maximized="1" />
  <metadata
     id="metadata3472">
    <rdf:RDF>
      <cc:Work
         rdf:about="">
        <dc:format>image/svg+xml</dc:format>
        <dc:type
           rdf:resource="http://purl.org/dc/dcmitype/StillImage" />
        <dc:title></dc:title>
      </cc:Work>
    </rdf:RDF>
  </metadata>
  <g
     inkscape:label="Layer 1"
     inkscape:groupmode="layer"
     id="layer1"
     transform="translate(0,-308.2677)">
    <g
       transform="matrix(3.5326774,0,0,3.5326774,-9.0813666,87.379715)"
       id="g3416"
       style="stroke:#4b0082"
       inkscape:export-filename="d:\Gbx\autosome\autosome\sesimcmc_64.png"
       inkscape:export-xdpi="8.1530132"
       inkscape:export-ydpi="8.1530132">
      <path
         sodipodi:nodetypes="cccccccccczzzcccccsccc"
         inkscape:connector-curvature="0"
         id="path2985-1"
         d="m 62.897624,234.4777 c 5.85766,9.07772 26.43924,12.45423 35.80674,3.54322 9.221736,-16.79443 8.314906,20.51966 17.893006,22.88127 9.71683,7.78717 17.22429,-9.49822 28.75924,-11.35548 7.12622,-4.01917 12.07414,6.46407 17.50523,16.59976 10.75323,9.54298 18.90585,-18.49664 31.3497,-16.93775 28.12333,20.00064 5.45211,-14.74703 19.39722,-18.74611 12.0869,-4.44759 15.08949,2.8213 25.54042,-5.14468 0.56244,-31.01834 -30.74403,-2.71 -13.72966,-45.331 19.39273,-0.86027 23.72899,-3.71693 24.11383,-20.57963 -9.77074,-28.74166 -51.42863,-18.76846 -35.2267,-9.85212 16.20193,8.91634 11.07988,-9.0477 14.2541,-6.261 3.17423,2.78669 16.74896,16.00781 -0.52092,24.4246 -17.26988,8.41678 -17.72646,-5.54814 -27.07773,1.30714 -11.48938,10.7425 4.24827,31.57858 -7.09207,33.52731 -9.28482,3.41641 -8.40924,-7.66969 -18.50798,-8.98669 -10.7432,-0.33263 -29.38822,12.74103 -36.87709,4.12337 -18.69642,-24.20445 33.99552,-28.0848 40.47694,-40.57037 12.06377,-23.31748 -74.18575,-62.703959 -99.771026,-44.98693 -25.08756,17.37237 -28.4559,28.92372 -22.23038,40.12378 4.3037,9.80255 23.36164,16.65158 21.3943,28.85993 8.31875,33.34977 -26.89035,41.26104 -15.45717,53.36138 z"
         style="fill:none;stroke:#4b0082;stroke-width:1.19345605000000000px;stroke-linecap:butt;stroke-linejoin:miter;stroke-opacity:1" />
      <path
         sodipodi:nodetypes="ccc"
         inkscape:connector-curvature="0"
         id="path3854-2"
         d="m 82.177011,158.56304 c 4.18065,8.08093 13.83814,17.15102 21.369239,18.24557 8.82029,1.38396 14.13022,-4.0726 26.63252,-8.50041"
         style="fill:none;stroke:#4b0082;stroke-width:1.19345605000000000px;stroke-linecap:butt;stroke-linejoin:miter;stroke-opacity:1" />
      <path
         inkscape:connector-curvature="0"
         id="path3893-5"
         d="m 103.96407,153.09615 c 2.9554,-1.25333 5.75562,-2.94188 8.91037,-3.66637 1.44235,-0.6708 1.54002,-3.29043 -0.096,-3.76147 -1.75022,-0.26523 -2.96779,1.67652 -2.70124,3.25554 0.36908,2.15171 1.8956,3.84643 2.89865,5.72224 1.09216,2.03584 3.5287,2.58279 5.30443,3.8265 0.80086,1.13185 -0.2398,2.53434 -1.32024,3.00346 -1.61632,0.65647 -3.36432,0.95781 -5.08428,1.22212 -2.06862,0.31613 -4.36379,-0.11684 -5.82581,-1.71719 -0.72373,-0.76233 -1.29456,-1.76569 -1.32874,-2.83419"
         style="fill:none;stroke:#4b0082;stroke-width:1.19345605000000000px;stroke-linecap:butt;stroke-linejoin:miter;stroke-opacity:1" />
      <path
         sodipodi:nodetypes="czc"
         inkscape:connector-curvature="0"
         id="path3927-5"
         d="m 62.303114,125.80293 c -3.82838,-1.81796 -7.83968,-1.86413 -10.83931,-8.20428 -2.99963,-6.34014 -1.58351,-15.52245 5.86507,-21.211529"
         style="fill:none;stroke:#4b0082;stroke-width:1.19345605000000000px;stroke-linecap:butt;stroke-linejoin:miter;stroke-opacity:1" />
      <path
         sodipodi:nodetypes="cccccc"
         inkscape:connector-curvature="0"
         id="path3929-1"
         d="m 56.135464,90.319581 c -0.0893,2.67737 0.0976,6.00076 2.61808,7.57976 1.4528,1.02446 2.55813,-2.98537 3.70406,-4.3768 1.69459,-1.69988 4.83751,0.85997 6.36777,-0.99955 3.51017,-4.71902 -2.41876,-4.32065 -5.70861,-6.68132 -5.46243,-8.83722 -7.25321,1.14818 -6.9813,4.47791 z"
         style="fill:none;stroke:#4b0082;stroke-width:1.19345605000000000px;stroke-linecap:butt;stroke-linejoin:miter;stroke-opacity:1" />
      <path
         sodipodi:nodetypes="cccc"
         inkscape:connector-curvature="0"
         id="path3931-7"
         d="m 101.8382,107.65894 c 0.3197,-3.5745 -0.42938,-10.527019 -3.056706,-12.996069 -2.65844,-4.25104 -6.66121,-4.3354 -10.72878,-7.19843 -1.73979,-1.39911 -3.01547,-6.76575 -2.48367,-9.11959"
         style="fill:none;stroke:#4b0082;stroke-width:1.19345605000000000px;stroke-linecap:butt;stroke-linejoin:miter;stroke-opacity:1" />
      <path
         sodipodi:nodetypes="ccccc"
         inkscape:connector-curvature="0"
         id="path3933-1"
         d="m 77.663404,78.061121 c 5.1105,-0.1599 2.11691,2.63266 3.59812,3.32429 1.27242,0.53092 3.58711,-1.61493 4.26081,-2.98984 1.28942,-2.07852 4.14615,-5.1319 2.23827,-8.6873 -4.29269,4.37006 -10.96401,3.98859 -10.0972,8.35285 z"
         style="fill:none;stroke:#4b0082;stroke-width:1.19345605000000000px;stroke-linecap:butt;stroke-linejoin:miter;stroke-opacity:1" />
      <path
         sodipodi:nodetypes="czzc"
         inkscape:connector-curvature="0"
         id="path3935-1"
         d="m 109.229,109.29349 c 1.16541,-7.34998 0.92034,-13.907139 6.90329,-20.073639 5.98295,-6.1665 13.26493,-1.84995 18.46013,-2.12944 5.1952,-0.27949 8.01031,-1.11166 10.57598,-6.22016"
         style="fill:none;stroke:#4b0082;stroke-width:1.19345605000000000px;stroke-linecap:butt;stroke-linejoin:miter;stroke-opacity:1" />
      <path
         sodipodi:nodetypes="zcczz"
         inkscape:connector-curvature="0"
         id="path3937-5"
         d="m 146.68363,76.324561 c -2.83114,-0.42177 -7.31141,1.99341 -1.12335,5.32554 2.50666,7.73233 8.99236,1.84027 9.37995,0.25697 0.70379,-1.23055 2.01928,-3.89071 -0.63992,-3.99063 -2.6592,-0.0999 -4.78554,-1.17012 -7.61668,-1.59188 z"
         style="fill:none;stroke:#4b0082;stroke-width:1.19345605000000000px;stroke-linecap:butt;stroke-linejoin:miter;stroke-opacity:1" />
      <path
         sodipodi:nodetypes="czzc"
         inkscape:connector-curvature="0"
         id="path3939-2"
         d="m 167.6443,133.90325 c 0.71252,-7.30967 4.24755,-9.53847 7.38703,-14.42283 3.13948,-4.88436 -1.51067,-8.02826 -5.44925,-11.92268 -3.93858,-3.89442 -2.48453,-9.142779 -2.69537,-15.070739"
         style="fill:none;stroke:#4b0082;stroke-width:1.19345605000000000px;stroke-linecap:butt;stroke-linejoin:miter;stroke-opacity:1" />
      <path
         sodipodi:nodetypes="zczz"
         inkscape:connector-curvature="0"
         id="path3941-76"
         d="m 164.10876,87.941311 c 4.43073,0.71533 -2.00294,4.65256 -0.43272,5.79289 4.05056,-0.15012 8.74853,-2.57928 6.26088,-8.80339 -2.48765,-6.2241 -10.25889,2.29517 -5.82816,3.0105 z"
         style="fill:none;stroke:#4b0082;stroke-width:1.19345605000000000px;stroke-linecap:butt;stroke-linejoin:miter;stroke-opacity:1" />
      <path
         sodipodi:nodetypes="czzczzc"
         inkscape:connector-curvature="0"
         id="path3943-1"
         d="m 138.98384,117.54642 c 0.61265,-0.72421 3.18067,-4.70313 2.98022,-6.79594 -0.20045,-2.0928 -1.96793,-7.45153 -1.45077,-9.74516 0.51716,-2.293639 1.60984,-5.648189 4.36377,-4.894079 5.61905,3.954459 -1.43046,13.156749 2.3011,14.835939 3.73156,1.6792 8.17507,-3.07262 6.0054,-5.94778 -2.16967,-2.87516 -5.87095,-2.01843 -7.00509,1.37719"
         style="fill:none;stroke:#4b0082;stroke-width:1.19345605000000000px;stroke-linecap:butt;stroke-linejoin:miter;stroke-opacity:1" />
      <path
         sodipodi:nodetypes="ccc"
         inkscape:connector-curvature="0"
         id="path3874-4"
         d="m 82.623421,159.11374 c 4.54957,4.02987 6.26444,5.89613 12.19552,9.48246 14.043469,9.33917 24.557819,2.18468 40.433639,-1.55455"
         style="fill:none;stroke:#4b0082;stroke-width:1.19345605000000000px;stroke-linecap:butt;stroke-linejoin:miter;stroke-opacity:1" />
      <path
         sodipodi:nodetypes="czc"
         inkscape:connector-curvature="0"
         id="path2990-1-5"
         d="m 139.85161,144.08026 c 0,0 -4.20757,6.5959 -9.12152,5.55835 -4.91397,-1.03756 -5.87491,-6.54168 -5.87491,-6.54168"
         style="fill:none;stroke:#4b0082;stroke-width:1.19345605000000000px;stroke-linecap:butt;stroke-linejoin:miter;stroke-opacity:1" />
      <path
         sodipodi:nodetypes="czc"
         inkscape:connector-curvature="0"
         id="path3038-7-4"
         d="m 144.97955,147.82248 c -4.91578,-3.84498 -4.64247,-4.67307 -11.34625,-5.67507 -6.70378,-1.00201 -7.46887,-0.27983 -10.76542,2.28718"
         style="fill:none;stroke:#4b0082;stroke-width:1.19345605000000000px;stroke-linecap:butt;stroke-linejoin:miter;stroke-opacity:1" />
      <path
         transform="matrix(0.93934695,0.34296837,-0.34296837,0.93934695,-129.2012,-66.584823)"
         d="m 322.14286,108.61218 c 0,0.78898 -0.67957,1.42857 -1.51786,1.42857 -0.83829,0 -1.51786,-0.63959 -1.51786,-1.42857 0,-0.78898 0.67957,-1.42857 1.51786,-1.42857 0.83829,0 1.51786,0.63959 1.51786,1.42857 z"
         sodipodi:ry="1.4285715"
         sodipodi:rx="1.5178572"
         sodipodi:cy="108.61218"
         sodipodi:cx="320.625"
         id="path3066-4-1"
         style="fill:#000000;fill-opacity:1;fill-rule:nonzero;stroke:#4b0082"
         sodipodi:type="arc" />
      <path
         sodipodi:nodetypes="czc"
         inkscape:connector-curvature="0"
         id="path2990-1-5-2"
         d="m 83.672472,141.95088 c 0,0 4.306859,2.6901 9.336767,2.26694 5.029929,-0.42316 6.013545,-2.66798 6.013545,-2.66798"
         style="fill:none;stroke:#4b0082;stroke-width:1.19345605000000000;stroke-linecap:butt;stroke-linejoin:miter;stroke-miterlimit:4;stroke-opacity:1;stroke-dasharray:none" />
      <path
         sodipodi:nodetypes="czc"
         inkscape:connector-curvature="0"
         id="path3038-7-4-3"
         d="m 78.721473,145.69472 c 4.91578,-3.84498 4.64247,-4.67307 11.34625,-5.67507 6.70378,-1.00201 7.46887,-0.27983 10.765417,2.28718"
         style="fill:none;stroke:#4b0082;stroke-width:1.19345605000000000px;stroke-linecap:butt;stroke-linejoin:miter;stroke-opacity:1" />
      <path
         transform="matrix(-0.93934695,0.34296837,0.34296837,0.93934695,359.5945,-70.101553)"
         d="m 322.14286,108.61218 c 0,0.78898 -0.67957,1.42857 -1.51786,1.42857 -0.83829,0 -1.51786,-0.63959 -1.51786,-1.42857 0,-0.78898 0.67957,-1.42857 1.51786,-1.42857 0.83829,0 1.51786,0.63959 1.51786,1.42857 z"
         sodipodi:ry="1.4285715"
         sodipodi:rx="1.5178572"
         sodipodi:cy="108.61218"
         sodipodi:cx="320.625"
         id="path3066-4-1-3"
         style="fill:#000000;fill-opacity:1;fill-rule:nonzero;stroke:#4b0082"
         sodipodi:type="arc" />
    </g>
  </g>
</svg>
